<svg xmlns="http://www.w3.org/2000/svg" viewBox="0 0 45.31 39.27"><defs><style>.cls-1{font-size:14px;font-family:GothamRounded-Medium, GothamRounded Medium;letter-spacing:-0.02em;}.cls-1,.cls-2{fill:#00b3e3;}</style></defs><title>huella_si</title><g id="Capa_2" data-name="Capa 2"><g id="Capa_1-2" data-name="Capa 1"><text class="cls-1" transform="translate(17.28 33.82)">si</text><path class="cls-2" d="M30.2,18.13c3.75,0,6.8-4.07,6.8-9.06S34,0,30.2,0s-6.8,4.07-6.8,9.06S26.46,18.13,30.2,18.13Zm0-16.62c2.91,0,5.29,3.39,5.29,7.55s-2.37,7.55-5.29,7.55-5.29-3.39-5.29-7.55S27.29,1.51,30.2,1.51Z"/><path class="cls-2" d="M15.1,18.13c3.75,0,6.8-4.07,6.8-9.06S18.85,0,15.1,0s-6.8,4.07-6.8,9.06S11.35,18.13,15.1,18.13Zm0-16.62c2.91,0,5.29,3.39,5.29,7.55S18,16.62,15.1,16.62,9.82,13.23,9.82,9.06,12.19,1.51,15.1,1.51Z"/><path class="cls-2" d="M40,14.35c-2.91,0-5.29,3-5.29,6.8s2.37,6.8,5.29,6.8,5.29-3,5.29-6.8S42.93,14.35,40,14.35Zm0,12.09c-2.08,0-3.78-2.37-3.78-5.29s1.69-5.29,3.78-5.29,3.78,2.37,3.78,5.29S42.1,26.44,40,26.44Z"/><path class="cls-2" d="M5.29,14.35c-2.91,0-5.29,3-5.29,6.8s2.37,6.8,5.29,6.8,5.29-3,5.29-6.8S8.2,14.35,5.29,14.35Zm0,12.09c-2.08,0-3.78-2.37-3.78-5.29s1.69-5.29,3.78-5.29,3.78,2.37,3.78,5.29S7.37,26.44,5.29,26.44Z"/><path class="cls-2" d="M31.6,22a14.46,14.46,0,0,0-12.29-2.75,14.29,14.29,0,0,0-11,14.27c.05,2.32.72,4,2,4.88,1.5,1.08,3.76,1.14,6.9.16a18.79,18.79,0,0,1,11,0,13.1,13.1,0,0,0,3.72.64A5,5,0,0,0,35,38.38c1.3-1,2-2.69,2-5.14A14.29,14.29,0,0,0,31.6,22Zm2.54,15.15c-1.05.78-2.89.78-5.45,0a21.17,21.17,0,0,0-6.12-.92,19.57,19.57,0,0,0-5.81.87c-2.62.81-4.49.83-5.57.05-.87-.63-1.33-1.87-1.37-3.68a12.78,12.78,0,0,1,9.82-12.76,13,13,0,0,1,11,2.46,12.79,12.79,0,0,1,4.83,10C35.49,35.18,35,36.5,34.14,37.16Z"/></g></g></svg>