<?xml version="1.0" encoding="utf-8"?>
<!-- Generator: Adobe Illustrator 18.0.0, SVG Export Plug-In . SVG Version: 6.00 Build 0)  -->
<!DOCTYPE svg PUBLIC "-//W3C//DTD SVG 1.1//EN" "http://www.w3.org/Graphics/SVG/1.1/DTD/svg11.dtd">
<svg version="1.1" id="Capa_1" xmlns="http://www.w3.org/2000/svg" xmlns:xlink="http://www.w3.org/1999/xlink" x="0px" y="0px"
	 viewBox="0 0 112.2 95" enable-background="new 0 0 112.2 95" xml:space="preserve">
<g>
	<g>
		<g>
			<path d="M112,89l-7-27.9c-0.1-0.4-0.3-0.8-0.5-1.2c0.4-1.1,0.6-2.3,0.6-3.5V10.4c0-5.8-4.7-10.4-10.4-10.4H17.5
				C11.7,0,7,4.7,7,10.4v45.9c0,1.2,0.2,2.4,0.6,3.5c-0.2,0.4-0.4,0.8-0.5,1.2l-7,28.1c-0.4,1.4,0,2.9,0.9,4C1.9,94.4,3.2,95,4.7,95
				h102.8c0,0,0,0,0,0c2.6,0,4.7-2.1,4.7-4.7C112.2,89.9,112.1,89.4,112,89z M68,87.7C68,87.7,67.9,87.7,68,87.7H44.2
				c-0.3,0-0.5-0.1-0.7-0.3c-0.2-0.2-0.2-0.5-0.2-0.8l1.8-10.3c0.1-0.4,0.5-0.8,0.9-0.8h20c0.4,0,0.8,0.3,0.9,0.8l1.8,10.2
				c0,0.1,0,0.2,0,0.2C68.9,87.3,68.5,87.7,68,87.7z M96,56.4c0,0.5-0.3,1-0.8,1.2H16.9c-0.5-0.2-0.8-0.7-0.8-1.2V10.4
				c0-0.7,0.6-1.3,1.3-1.3h77.2c0.7,0,1.3,0.6,1.3,1.3V56.4L96,56.4z"/>
			<path d="M58.6,31.5l2.9-0.8c0.6-0.2,1-0.7,1-1.3c0-0.6-0.3-1.1-0.9-1.4l-13.5-5.1c-0.5-0.2-1.1-0.1-1.5,0.3
				c-0.4,0.4-0.5,1-0.3,1.5l5.1,13.5c0.2,0.6,0.8,0.9,1.4,0.9c0.6,0,1.1-0.4,1.3-1l0.8-2.9l6.8,6.8c0.5,0.5,1.4,0.5,2,0l1.7-1.7
				c0.5-0.5,0.5-1.4,0-2L58.6,31.5z"/>
		</g>
	</g>
</g>
</svg>
