<?xml version="1.0" encoding="utf-8"?>
<!-- Generator: Adobe Illustrator 18.0.0, SVG Export Plug-In . SVG Version: 6.00 Build 0)  -->
<!DOCTYPE svg PUBLIC "-//W3C//DTD SVG 1.1//EN" "http://www.w3.org/Graphics/SVG/1.1/DTD/svg11.dtd">
<svg version="1.1" id="Capa_1" xmlns="http://www.w3.org/2000/svg" xmlns:xlink="http://www.w3.org/1999/xlink" x="0px" y="0px"
	 viewBox="0 0 100.1 87.3" enable-background="new 0 0 100.1 87.3" xml:space="preserve">
<g>
	<g>
		<g>
			<path d="M95.9,22.2c-3.2-5.4-7.7-10.5-10.7-13.1C78.6,3.2,73.1,3.4,70.4,4c-1.1,0.3-2.2,0.7-3.1,1.2C62.7,1.7,56.9,0,50,0
				c-6.9,0-12.6,1.7-17.3,5.2c-0.9-0.6-2-1-3.1-1.2c-2.7-0.6-8.2-0.7-14.8,5.1c-3,2.7-7.5,7.8-10.7,13.1c-4.3,7.3-5.3,13.1-2.9,17.5
				c3,5.3,7.4,6.6,11,7c-0.9,3.5-1.4,7.1-1.4,11.7c0,6.1,1.4,11.3,4.1,15.6c2.4,3.7,5.9,6.7,10.3,8.9c8.2,4,18,4.5,24.7,4.5
				c6.7,0,16.5-0.5,24.7-4.5c4.4-2.2,7.9-5.2,10.3-8.9c2.7-4.3,4.1-9.5,4.1-15.6c0-4.6-0.5-8.3-1.4-11.7c3.6-0.3,8.1-1.7,11-7
				C101.2,35.3,100.2,29.5,95.9,22.2z M14.2,40.6c-3.2-0.1-5.8-0.7-7.6-3.9c-1.2-2.2-0.2-6.3,2.8-11.3c2.8-4.8,6.9-9.4,9.5-11.7
				c4.3-3.8,7.4-4,9-3.8c-4.5,5.5-7.2,12.5-9.5,19.4c-0.9,2.8-1.9,5.3-2.7,7.6C15.1,38.2,14.7,39.4,14.2,40.6z M46,60.7
				c-1.6-1.6-2.4-3.2-2.4-4.1c0-0.7,0.1-0.8,0.6-1c1.3-0.6,4-0.6,5.8-0.6c1.9,0,4.5,0.1,5.8,0.6c0.5,0.2,0.6,0.2,0.6,1
				c0,0.8-0.8,2.5-2.4,4.1c-1.6,1.6-3.2,2.4-4,2.4C49.3,63,47.6,62.2,46,60.7z M72,77.3c-4.7,2.3-10.9,3.5-19,3.8V68.6
				c2.4-0.9,4.4-2.7,5.3-3.6c1.3-1.3,4.2-4.6,4.2-8.4c0-3.1-1.5-5.5-4.3-6.6c-1.9-0.8-4.2-1.1-8.2-1.1c-3.9,0-6.3,0.3-8.2,1.1
				c-2.8,1.2-4.3,3.5-4.3,6.6c0,3.8,2.9,7.1,4.2,8.4c0.9,0.9,2.9,2.7,5.3,3.6v12.5c-8-0.2-14.3-1.5-19-3.8c-7.4-3.6-11-9.8-11-19
				c0-7.8,1.8-12.6,4.3-19.3c0.9-2.3,1.8-4.9,2.8-7.9C29.6,14.9,35.3,6.1,50,6.1c14.7,0,20.5,8.8,25.9,25.1c1,3,2,5.6,2.8,7.9
				c2.5,6.6,4.3,11.4,4.3,19.3C83,67.5,79.4,73.7,72,77.3z M93.4,36.7c-1.8,3.2-4.4,3.8-7.6,3.9c-0.4-1.2-0.9-2.4-1.4-3.7
				c-0.9-2.4-1.8-4.8-2.7-7.6c-2.3-6.9-5-14-9.5-19.4c1.5-0.2,4.7,0,9,3.8c2.6,2.3,6.6,6.9,9.5,11.7C93.6,30.3,94.6,34.5,93.4,36.7z
				"/>
			<path d="M39.8,32.5c-2.2,0-4,1.8-4,4.1c0,2.2,1.8,4.1,4,4.1c2.2,0,4-1.8,4-4.1C43.9,34.4,42.1,32.5,39.8,32.5z"/>
			<path d="M60.2,32.5c-2.2,0-4.1,1.8-4.1,4.1c0,2.3,1.8,4.1,4.1,4.1c2.2,0,4.1-1.8,4.1-4.1C64.2,34.4,62.4,32.5,60.2,32.5z"/>
		</g>
	</g>
</g>
</svg>
