<?xml version="1.0" encoding="utf-8"?>
<!-- Generator: Adobe Illustrator 18.0.0, SVG Export Plug-In . SVG Version: 6.00 Build 0)  -->
<!DOCTYPE svg PUBLIC "-//W3C//DTD SVG 1.1//EN" "http://www.w3.org/Graphics/SVG/1.1/DTD/svg11.dtd">
<svg version="1.1" id="Capa_1" xmlns="http://www.w3.org/2000/svg" xmlns:xlink="http://www.w3.org/1999/xlink" x="0px" y="0px"
	 viewBox="0 0 38.1 33.1" enable-background="new 0 0 38.1 33.1" xml:space="preserve">
<g>
	<g>
		<path d="M36.5,8.4c-1.2-2-2.9-4-4.1-5c-2.5-2.2-4.6-2.2-5.7-1.9c-0.4,0.1-0.8,0.2-1.1,0.4c-1.8-1.3-4-1.9-6.6-1.9
			s-4.8,0.6-6.6,1.9c-0.3-0.2-0.7-0.4-1.1-0.4c-1-0.2-3.2-0.3-5.7,1.9c-1.2,1-2.9,2.9-4.1,5c-1.7,2.8-2,5-1.1,6.7
			c1.1,2,2.8,2.5,4.2,2.7c-0.3,1.3-0.5,2.7-0.5,4.4c0,2.3,0.5,4.3,1.6,5.9c0.9,1.4,2.2,2.6,3.9,3.4c2.6,1.3,5.7,1.6,8.2,1.7v-7.8
			c-1.5-0.7-3-2.5-3-3.9c0-2.4,2.6-2.4,4.2-2.4c1.6,0,4.2,0,4.2,2.4c0,1.4-1.5,3.2-3,3.9v7.8c2.4-0.1,5.5-0.4,8.2-1.7
			c1.7-0.8,3-2,3.9-3.4c1-1.6,1.6-3.6,1.6-5.9c0-1.7-0.2-3.1-0.5-4.4c1.4-0.1,3.1-0.7,4.2-2.7C38.6,13.4,38.2,11.2,36.5,8.4z
			 M15.2,15.4c-0.8,0-1.5-0.7-1.5-1.5c0-0.8,0.7-1.5,1.5-1.5c0.8,0,1.5,0.7,1.5,1.5C16.7,14.8,16,15.4,15.2,15.4z M22.9,15.5
			c-0.8,0-1.5-0.7-1.5-1.5s0.7-1.5,1.5-1.5c0.8,0,1.5,0.7,1.5,1.5S23.8,15.5,22.9,15.5z"/>
	</g>
</g>
</svg>
