<?xml version="1.0" encoding="utf-8"?>
<!-- Generator: Adobe Illustrator 18.0.0, SVG Export Plug-In . SVG Version: 6.00 Build 0)  -->
<!DOCTYPE svg PUBLIC "-//W3C//DTD SVG 1.1//EN" "http://www.w3.org/Graphics/SVG/1.1/DTD/svg11.dtd">
<svg version="1.1" id="Capa_1" xmlns="http://www.w3.org/2000/svg" xmlns:xlink="http://www.w3.org/1999/xlink" x="0px" y="0px"
	 viewBox="0 0 38.6 31.8" enable-background="new 0 0 38.6 31.8" xml:space="preserve">
<path d="M0.1,8.8c1.1,2.2,3.2,3.5,5.5,3.5c0.3,0,0.7,0,1-0.1c0,0,1.7,8.1,1.8,8.1c0.2,0.8,0.4,1.7,1.2,2.2V31c0,0.4,0.4,0.8,0.8,0.8
	h0.8c0.4,0,0.7-0.3,0.8-0.7l1.3-8.3c3-0.5,7.6-1.3,11-1.9c0.3,0.6,0.8,1.2,1.4,1.7c0,0,0,0,0,0l6.5,4.9l-0.6,3.4
	c0,0.2,0,0.5,0.2,0.6c0.1,0.2,0.4,0.3,0.6,0.3h1c0.4,0,0.7-0.3,0.8-0.6l1-5.3c0-0.2,0-0.4-0.1-0.6l-2.2-3c1.4-2.7,1.2-4.8,0.9-6.2
	c-0.3-1.2-0.9-2-1.2-2.3c2.6-0.6,4.9-2.4,6.2-4.8c0.2-0.4,0.1-0.9-0.3-1.1c-0.4-0.2-0.9-0.1-1.1,0.3c-1.4,2.7-4.4,4.4-7.5,4.2
	l-15.1-0.7L10.5,0.5C10.4,0.2,10.1,0,9.8,0C9.4,0,9.1,0.2,9,0.6L8.5,2.5l-0.9-1C7.4,1.3,7.1,1.2,6.8,1.3C6.5,1.4,6.3,1.7,6.3,2
	L6.1,4.1C5,4.4,4.1,5.3,3.9,6.4L0.5,7.8C0.3,7.8,0.1,8,0.1,8.2C0,8.4,0,8.7,0.1,8.8z"/>
</svg>
