<?xml version="1.0" encoding="utf-8"?>
<!-- Generator: Adobe Illustrator 18.0.0, SVG Export Plug-In . SVG Version: 6.00 Build 0)  -->
<!DOCTYPE svg PUBLIC "-//W3C//DTD SVG 1.1//EN" "http://www.w3.org/Graphics/SVG/1.1/DTD/svg11.dtd">
<svg version="1.1" id="Capa_1" xmlns="http://www.w3.org/2000/svg" xmlns:xlink="http://www.w3.org/1999/xlink" x="0px" y="0px"
	 viewBox="0 0 43.8 33.8" enable-background="new 0 0 43.8 33.8" xml:space="preserve">
<g>
	<g>
		<path d="M30.3,31h-4.5L15.2,15.5L5,13.5L1.4,31.2c-0.2,1.1,0.5,2.2,1.6,2.5c0.1,0,0.3,0,0.4,0c1,0,1.8-0.7,2-1.7l2-9.7l3.6,7.2
			l-1.9,0h0c-1.2,0-2.1,0.9-2.1,2.1c0,1.2,0.9,2.1,2.1,2.1l21,0c0.8,0,1.4-0.6,1.4-1.4C31.7,31.7,31,31,30.3,31z"/>
		<path d="M4.8,9.2c0.2,0.1,0.2,2.5,0.2,2.5l9.5,1.8l1.6-8.9c0.2-0.6,0.4-1.1,0.7-1.7c1.3-2.4-0.4-2.9-0.8-3c-1-0.1-1.8,0.4-2.4,1.2
			c-0.3,0.4-0.7,0.9-1,1.3c-0.1,0.1-0.2,0.2-0.4,0.1c-0.3-0.1-0.6-0.1-0.9-0.1C9.7,2.3,8.5,3,6.9,3c-0.6,0-5-2-6.2-0.5
			C-0.6,4.1,0.1,6,1.3,7.3C2,8,2.9,8.6,3.8,8.9C4.2,9,4.5,9.1,4.8,9.2z"/>
		<path d="M40.5,12.7h-4.6c-0.3-1.8-2-3.3-3.9-3.3h-4.1c-1.9,0-3.6,1.4-3.9,3.3h-4.6c-1.4,0-2.6,0.9-3.1,2.1l10.2,15h3.9
			c1.4,0,2.5,1.1,2.5,2.5c0,0.6-0.2,1.1-0.5,1.5h8c1.8,0,3.3-1.5,3.3-3.3V16C43.8,14.2,42.3,12.7,40.5,12.7z M27.9,11.1H32
			c1,0,1.9,0.7,2.2,1.6h-8.4C26,11.8,26.9,11.1,27.9,11.1z M35.9,25.2h-4v4h-4v-4h-4v-4h4v-4h4v4h4L35.9,25.2L35.9,25.2z"/>
	</g>
</g>
</svg>
