<?xml version="1.0" encoding="utf-8"?>
<!-- Generator: Adobe Illustrator 18.0.0, SVG Export Plug-In . SVG Version: 6.00 Build 0)  -->
<!DOCTYPE svg PUBLIC "-//W3C//DTD SVG 1.1//EN" "http://www.w3.org/Graphics/SVG/1.1/DTD/svg11.dtd">
<svg version="1.1" id="Capa_1" xmlns="http://www.w3.org/2000/svg" xmlns:xlink="http://www.w3.org/1999/xlink" x="0px" y="0px"
	 viewBox="0 0 27.2 43" enable-background="new 0 0 27.2 43" xml:space="preserve">
<path d="M0,20.6c-0.1,0.5,0.2,0.9,0.6,1.1L1.4,22c0.1,0.1,0.3,0.1,0.4,0.1c0.4,0,0.8-0.2,0.9-0.6l0.7-1.5l2.2,1
	C5,25.3,6,30.8,8.6,37.5c-2,0.4-4.3,1.6-4.3,4.4c0,0.6,0.5,1,1,1L19,43c5.4,0,8.1-2.5,8.1-7.4c0-0.6-0.5-1-1-1s-1,0.5-1,1
	c0,3.5-1.6,5.1-5.4,5.3V1c0-0.5-0.3-0.9-0.7-1c-0.4-0.1-0.9,0-1.2,0.4l-1.5,2l-0.6-1.5c-0.2-0.4-0.5-0.6-0.9-0.6
	c-0.4,0-0.8,0.2-1,0.6l-1.2,2.5c-0.1,0-0.2,0-0.3,0c-1.3,0-2.6,0.7-3.3,1.8L4.3,5.4C4,5.4,3.7,5.5,3.5,5.8C3.4,6,3.3,6.3,3.3,6.6
	c0.5,3.8,3.3,6.7,6.9,7.1c-0.9,0.5-2.3,1.5-3.3,3.5l-3.1-0.7L1.9,16c-0.3-0.1-0.6,0-0.8,0.1c-0.2,0.2-0.4,0.4-0.5,0.7L0,20.6z"/>
</svg>
