<?xml version="1.0" encoding="utf-8"?>
<!-- Generator: Adobe Illustrator 18.0.0, SVG Export Plug-In . SVG Version: 6.00 Build 0)  -->
<!DOCTYPE svg PUBLIC "-//W3C//DTD SVG 1.1//EN" "http://www.w3.org/Graphics/SVG/1.1/DTD/svg11.dtd">
<svg version="1.1" id="Capa_1" xmlns="http://www.w3.org/2000/svg" xmlns:xlink="http://www.w3.org/1999/xlink" x="0px" y="0px"
	 viewBox="0 0 89 88" enable-background="new 0 0 89 88" xml:space="preserve">
<g>
	<g>
		<path d="M82.4,35.5l2.9,2.3l3.7-4.6L47.3,0L5.6,33.2l3.7,4.6l3.3-2.6v35H3L0,88h87.1v-5.9h-4.8L82.4,35.5L82.4,35.5z M6.9,82.4
			l1-6h14.9l1,6H6.9z M56.3,82.4h-18v-17c0-5,4-9,9-9s9,4,9,9L56.3,82.4L56.3,82.4z M76.5,82.4H62.3v-17c0-8.3-6.7-15-15-15
			s-15,6.7-15,15v17h-2.5l-2-12h-9.3V30.3l28.8-23l29.2,23.3V82.4z"/>
	</g>
</g>
</svg>
