<?xml version="1.0" encoding="utf-8"?>
<!-- Generator: Adobe Illustrator 18.0.0, SVG Export Plug-In . SVG Version: 6.00 Build 0)  -->
<!DOCTYPE svg PUBLIC "-//W3C//DTD SVG 1.1//EN" "http://www.w3.org/Graphics/SVG/1.1/DTD/svg11.dtd">
<svg version="1.1" id="Capa_1" xmlns="http://www.w3.org/2000/svg" xmlns:xlink="http://www.w3.org/1999/xlink" x="0px" y="0px"
	 viewBox="0 0 11.3 15.3" enable-background="new 0 0 11.3 15.3" xml:space="preserve">
<g>
	<path d="M8.7,0H0.9C0.4,0,0,0.4,0,0.9v13.4c0,0.5,0.4,0.9,0.9,0.9h9.5c0.5,0,0.9-0.4,0.9-0.9V2.9L8.7,0z M8.9,1.4L10,2.7H8.9V1.4z
		 M10.5,14.4c0,0.1-0.1,0.2-0.2,0.2H0.9c-0.1,0-0.2-0.1-0.2-0.2V0.9c0-0.1,0.1-0.2,0.2-0.2h7.1v2.3c0,0.2,0.2,0.4,0.4,0.4h2.1V14.4z
		 M2.2,4.2h6.7c0.2,0,0.3,0.1,0.3,0.3S9,4.8,8.9,4.8H2.2C2,4.8,1.9,4.7,1.9,4.5C1.9,4.3,2,4.2,2.2,4.2z M9.2,6.5
		c0,0.2-0.1,0.3-0.3,0.3H2.2C2,6.8,1.9,6.6,1.9,6.5S2,6.2,2.2,6.2h6.7C9,6.2,9.2,6.3,9.2,6.5z M9.2,8.4c0,0.2-0.1,0.3-0.3,0.3H2.2
		C2,8.7,1.9,8.6,1.9,8.4c0-0.2,0.1-0.3,0.3-0.3h6.7C9,8.1,9.2,8.2,9.2,8.4z M9.2,10.4c0,0.2-0.1,0.3-0.3,0.3H2.2
		c-0.2,0-0.3-0.1-0.3-0.3c0-0.2,0.1-0.3,0.3-0.3h6.7C9,10.1,9.2,10.2,9.2,10.4z"/>
</g>
</svg>
