<?xml version="1.0" encoding="utf-8"?>
<!-- Generator: Adobe Illustrator 18.0.0, SVG Export Plug-In . SVG Version: 6.00 Build 0)  -->
<!DOCTYPE svg PUBLIC "-//W3C//DTD SVG 1.1//EN" "http://www.w3.org/Graphics/SVG/1.1/DTD/svg11.dtd">
<svg version="1.1" id="Capa_1" xmlns="http://www.w3.org/2000/svg" xmlns:xlink="http://www.w3.org/1999/xlink" x="0px" y="0px"
	 viewBox="0 0 15.4 15" enable-background="new 0 0 15.4 15" xml:space="preserve">
<g>
	<path d="M11.7,7.8c0.2-0.2,0.2-0.4,0-0.6c-0.2-0.2-0.4-0.2-0.6,0l-3,3V0.4C8.1,0.2,7.9,0,7.7,0S7.3,0.2,7.3,0.4v9.8l-3-3
		c-0.2-0.2-0.4-0.2-0.6,0c-0.2,0.2-0.2,0.4,0,0.6l3.7,3.7c0.2,0.2,0.4,0.2,0.6,0L11.7,7.8z M14.6,10.5c0-0.2,0.2-0.4,0.4-0.4
		c0.2,0,0.4,0.2,0.4,0.4v4c0,0.2-0.2,0.4-0.4,0.4H0.4C0.2,15,0,14.8,0,14.5v-4c0-0.2,0.2-0.4,0.4-0.4s0.4,0.2,0.4,0.4v3.6h13.7V10.5
		z"/>
</g>
</svg>
