<?xml version="1.0" encoding="utf-8"?>
<!-- Generator: Adobe Illustrator 18.0.0, SVG Export Plug-In . SVG Version: 6.00 Build 0)  -->
<!DOCTYPE svg PUBLIC "-//W3C//DTD SVG 1.1//EN" "http://www.w3.org/Graphics/SVG/1.1/DTD/svg11.dtd">
<svg version="1.1" id="Capa_1" xmlns="http://www.w3.org/2000/svg" xmlns:xlink="http://www.w3.org/1999/xlink" x="0px" y="0px"
	 viewBox="0 0 20 18.4" enable-background="new 0 0 20 18.4" xml:space="preserve">
<g>
	<g>
		<g>
			<path fill-rule="evenodd" clip-rule="evenodd" d="M8.6,7.3C8.8,7.3,9,7.4,9,7.7c0,0.2-0.2,0.4-0.4,0.4c-0.2,0-0.4-0.2-0.4-0.4
				C8.2,7.4,8.4,7.3,8.6,7.3L8.6,7.3z"/>
		</g>
		<g>
			<path fill-rule="evenodd" clip-rule="evenodd" d="M11.4,7.3c0.2,0,0.4,0.2,0.4,0.4c0,0.2-0.2,0.4-0.4,0.4c-0.2,0-0.4-0.2-0.4-0.4
				C11,7.4,11.2,7.3,11.4,7.3L11.4,7.3z"/>
		</g>
		<g>
			<path d="M10,15.8C10,15.8,10,15.8,10,15.8c-0.2,0-0.3-0.1-0.4-0.3c0,0,0-0.1,0-0.3c0-0.3-0.2-0.8-0.6-1C8.9,14,8.8,14,8.6,13.9
				c-0.9-0.5-2.1-1.2-2.1-2.2c0-0.6,0.2-1.2,0.6-1.6C7.6,9.5,8.5,9.3,10,9.3l0.1,0c1.5,0,2.4,0.3,2.9,0.8c0.4,0.4,0.6,0.9,0.6,1.6
				c0,1-1.2,1.7-2.1,2.2C11.2,14,11.1,14,11,14.1c-0.4,0.3-0.6,0.7-0.6,1c0,0.2,0,0.3,0,0.3C10.3,15.6,10.2,15.8,10,15.8z M10,10
				c-1.2,0-2,0.2-2.4,0.6c-0.2,0.2-0.4,0.6-0.3,1c0,0.6,1.1,1.2,1.8,1.6c0.2,0.1,0.3,0.2,0.4,0.3c0.3,0.2,0.4,0.3,0.6,0.5
				c0.1-0.2,0.3-0.4,0.6-0.5c0.1-0.1,0.3-0.2,0.4-0.3c0.7-0.4,1.8-1,1.8-1.6c0-0.4-0.1-0.8-0.3-1C12,10.2,11.3,10,10,10L10,10z"/>
		</g>
		<g>
			<path d="M13.1,18.4c-1.3,0-2.5-0.9-3.1-2.3c-0.6,1.3-1.8,2.3-3.1,2.3c-2.2,0-3.6-1.9-3.6-5.2c0-0.3,0-0.6,0-0.8
				c0.2-2,1.6-6.7,2.5-8.5C5.6,3.2,5.3,3,5.2,3C5.1,3,5,3.1,4.9,3.2C4.2,3.8,4.1,4.6,4,5.6C3.9,6.7,3.8,7.9,2.7,8.9
				C2.3,9.3,2,9.5,1.7,9.5c-0.6,0-0.9-0.6-1.3-1.7l0-0.1c-1-2.4,0.1-5.2,1.6-6.7c0.7-0.7,1.6-1,2.5-1c1.2,0,2.4,0.7,3.1,1.9
				c0.6-0.3,1.3-0.4,2.4-0.4c1,0,1.8,0.1,2.4,0.4C13.2,0.7,14.3,0,15.6,0c0.8,0,1.5,0.3,2.1,0.8c1.7,1.3,2.9,4,2,6.5l-0.1,0.2
				c-0.4,1.1-0.6,1.7-1.3,1.7l0,0c-0.3,0-0.5-0.1-0.9-0.4c-1.2-0.9-1.3-2.1-1.4-3.2C16,4.8,16,4,15.3,3.5c-0.4-0.3-0.8-0.2-1.1,0.2
				c1.1,2,2.3,6.7,2.4,8.7c0,0.2,0,0.4,0,0.7C16.7,16.4,15.4,18.4,13.1,18.4z M10,14.4c0.2,0,0.3,0.1,0.4,0.3c0.2,1.7,1.4,3,2.8,3
				c2.6,0,2.8-3.3,2.8-4.6c0-0.2,0-0.4,0-0.6c-0.2-2.2-1.5-7-2.5-8.5c-0.1-0.1-0.1-0.3,0-0.4c0.3-0.6,0.8-0.9,1.4-0.9
				c0.3,0,0.6,0.1,0.9,0.3c0.9,0.7,1,1.7,1.1,2.7c0.1,1,0.2,1.9,1.1,2.7c0.3,0.2,0.4,0.2,0.4,0.2c0.1,0,0.4-0.8,0.6-1.3L19,7
				c0.8-2.2-0.3-4.5-1.8-5.7c-0.5-0.4-1.1-0.6-1.7-0.6c-1.1,0-2.1,0.6-2.7,1.8c0,0.1-0.1,0.2-0.2,0.2c-0.1,0-0.2,0-0.3-0.1
				c-0.5-0.3-1.1-0.4-2.3-0.4c-1.3,0-1.8,0.1-2.3,0.4c0,0,0,0-0.1,0.1C7.6,2.7,7.5,2.8,7.4,2.7c-0.1,0-0.2-0.1-0.2-0.2
				C6.6,1.4,5.6,0.7,4.5,0.7c-0.7,0-1.4,0.3-2,0.8C1.1,2.9,0.2,5.4,1.1,7.4l0,0.1C1.3,8,1.6,8.7,1.7,8.7c0,0,0.1,0,0.4-0.3
				c0.9-0.9,1-1.9,1.1-2.9c0.1-1,0.2-2,1.1-2.9c0.2-0.2,0.5-0.4,0.8-0.4c0.5,0,1,0.5,1.4,1.4c0,0.1,0.1,0.3,0,0.4
				c-0.9,1.6-2.3,6.4-2.5,8.4c0,0.3,0,0.5,0,0.8c0,1.3,0.3,4.5,2.8,4.5c1.4,0,2.6-1.3,2.8-3C9.7,14.5,9.8,14.4,10,14.4z"/>
		</g>
	</g>
</g>
</svg>
