<?xml version="1.0" encoding="utf-8"?>
<!-- Generator: Adobe Illustrator 18.0.0, SVG Export Plug-In . SVG Version: 6.00 Build 0)  -->
<!DOCTYPE svg PUBLIC "-//W3C//DTD SVG 1.1//EN" "http://www.w3.org/Graphics/SVG/1.1/DTD/svg11.dtd">
<svg version="1.1" id="Capa_1" xmlns="http://www.w3.org/2000/svg" xmlns:xlink="http://www.w3.org/1999/xlink" x="0px" y="0px"
	 viewBox="0 0 21.7 18" enable-background="new 0 0 21.7 18" xml:space="preserve">
<g>
	<g>
		<g>
			<path d="M7.2,17.7c-0.1,0-0.1,0-0.2,0c-1.3-0.7-2.1-2-2.1-3.4c0-1.3,0.7-2.5,1.9-3.2C7,11,7.2,11,7.3,11.2
				c0.1,0.2,0.1,0.4-0.1,0.5c-1,0.6-1.5,1.6-1.5,2.6c0,1.1,0.7,2.1,1.8,2.7c0.2,0.1,0.2,0.3,0.1,0.5C7.5,17.6,7.3,17.7,7.2,17.7z"/>
		</g>
		<g>
			<path d="M10.8,12C4.9,12,0,9.3,0,6c0-3.3,4.9-6,10.8-6s10.8,2.7,10.8,6C21.7,9.3,16.8,12,10.8,12z M10.8,0.7
				C5.3,0.7,0.7,3.1,0.7,6c0,2.9,4.5,5.3,10.1,5.3S21,8.9,21,6C21,3.1,16.4,0.7,10.8,0.7z"/>
		</g>
		<g>
			<path d="M19.8,9.4c-0.1,0-0.2,0-0.2-0.1c-1.8-1.6-5.2-2.6-8.7-2.6c-3.5,0-6.8,1-8.6,2.6C2,9.4,1.8,9.4,1.7,9.2
				c-0.1-0.1-0.1-0.4,0-0.5C3.7,7,7.1,6,10.8,6C14.6,6,18.1,7,20,8.8c0.1,0.1,0.2,0.4,0,0.5C20,9.4,19.9,9.4,19.8,9.4z"/>
		</g>
		<g>
			<path d="M10.8,18C4.9,18,0,15.3,0,12V6c0-0.2,0.2-0.4,0.4-0.4S0.7,5.8,0.7,6v6c0,2.9,4.5,5.3,10.1,5.3S21,14.9,21,12V6
				c0-0.2,0.2-0.4,0.4-0.4s0.4,0.2,0.4,0.4v6C21.7,15.3,16.8,18,10.8,18z"/>
		</g>
		<g>
			<path fill-rule="evenodd" clip-rule="evenodd" d="M8.8,14.1c0.3,0,0.5,0.2,0.5,0.5C9.3,14.8,9,15,8.8,15c-0.3,0-0.5-0.2-0.5-0.5
				C8.3,14.3,8.5,14.1,8.8,14.1L8.8,14.1z"/>
			<path d="M8.8,15.4C8.3,15.4,8,15,8,14.6c0-0.5,0.4-0.8,0.8-0.8c0.5,0,0.8,0.4,0.8,0.8C9.6,15,9.2,15.4,8.8,15.4z M8.8,14.5
				c-0.1,0-0.1,0-0.1,0.1c0,0.1,0.2,0.1,0.2,0C8.9,14.5,8.8,14.5,8.8,14.5z"/>
		</g>
		<g>
			<path fill-rule="evenodd" clip-rule="evenodd" d="M12.4,14.1c0.3,0,0.5,0.2,0.5,0.5c0,0.3-0.2,0.5-0.5,0.5
				c-0.3,0-0.5-0.2-0.5-0.5C11.9,14.4,12.1,14.1,12.4,14.1L12.4,14.1z"/>
			<path d="M12.4,15.4c-0.5,0-0.8-0.4-0.8-0.8c0-0.5,0.4-0.8,0.8-0.8c0.5,0,0.8,0.4,0.8,0.8C13.2,15.1,12.8,15.4,12.4,15.4z
				 M12.4,14.5c-0.1,0-0.1,0-0.1,0.1c0,0.1,0.2,0.1,0.2,0C12.5,14.6,12.5,14.5,12.4,14.5z"/>
		</g>
		<g>
			<path fill-rule="evenodd" clip-rule="evenodd" d="M16,13.4c0.3,0,0.5,0.2,0.5,0.5c0,0.3-0.2,0.5-0.5,0.5c-0.3,0-0.5-0.2-0.5-0.5
				C15.5,13.6,15.7,13.4,16,13.4L16,13.4z"/>
			<path d="M16,14.7c-0.5,0-0.8-0.4-0.8-0.8c0-0.5,0.4-0.8,0.8-0.8c0.5,0,0.8,0.4,0.8,0.8C16.8,14.4,16.4,14.7,16,14.7z M16,13.8
				c-0.1,0-0.1,0-0.1,0.1c0,0.1,0.2,0.1,0.2,0C16.1,13.8,16.1,13.8,16,13.8z"/>
		</g>
	</g>
</g>
</svg>
