<?xml version="1.0" encoding="utf-8"?>
<!-- Generator: Adobe Illustrator 18.0.0, SVG Export Plug-In . SVG Version: 6.00 Build 0)  -->
<!DOCTYPE svg PUBLIC "-//W3C//DTD SVG 1.1//EN" "http://www.w3.org/Graphics/SVG/1.1/DTD/svg11.dtd">
<svg version="1.1" id="Capa_1" xmlns="http://www.w3.org/2000/svg" xmlns:xlink="http://www.w3.org/1999/xlink" x="0px" y="0px"
	 viewBox="0 0 18 18" enable-background="new 0 0 18 18" xml:space="preserve">
<g>
	<g>
		<g>
			<path d="M11.1,15.2L11.1,15.2c-0.1,0-0.1,0-0.2,0c-0.8-0.1-1.1-0.4-1.4-0.7c-0.2-0.2-0.3-0.4-0.7-0.5c-0.4-0.2-0.7-0.3-1-0.3
				c-0.5-0.1-0.9-0.2-1.3-0.7c-0.4-0.4-0.5-0.9-0.3-1.4c0.3-0.8,1.1-1.3,2-1.3c0.2,0,0.4-0.1,0.6-0.2C9,10,9,9.9,9.1,9.9
				c0.2-0.1,0.4-0.1,0.6-0.1c0.9,0,1.8,0.7,2,1.4c0,0.2,0.1,0.3,0.1,0.5c0,0.2,0,0.3,0.1,0.4c0.3,0.5,0.5,1.1,0.5,1.6
				C12.4,14.4,11.9,15.2,11.1,15.2z M9.7,10.5c-0.1,0-0.2,0-0.3,0.1c-0.1,0-0.1,0.1-0.2,0.1c-0.2,0.1-0.5,0.3-1,0.3
				c-0.7,0-1.2,0.5-1.4,0.9C6.8,12,6.8,12.3,7,12.5c0.3,0.3,0.5,0.4,1,0.5c0.3,0.1,0.7,0.2,1.1,0.4c0.4,0.2,0.7,0.5,0.9,0.7
				c0.3,0.3,0.4,0.4,1,0.5c0.1,0,0.1,0,0.1,0c0.4,0,0.6-0.5,0.6-0.9c0-0.4-0.1-0.8-0.4-1.2c0,0,0,0,0,0c-0.1-0.2-0.1-0.4-0.1-0.6
				c0-0.1,0-0.3-0.1-0.4C11,10.9,10.3,10.5,9.7,10.5z M13.8,12.6c-0.4,0-0.8-0.2-0.9-0.4c-0.1-0.3-0.2-0.8,0.5-1.4
				c0.4-0.3,0.7-0.4,0.9-0.4c0.5,0,0.9,0.3,1,0.7c0.1,0.5-0.1,1-0.7,1.3C14.4,12.6,14.1,12.6,13.8,12.6z M13.5,11.9c0,0,0.1,0,0.2,0
				c0.2,0,0.3,0,0.5-0.1c0.3-0.2,0.4-0.4,0.4-0.5c-0.1-0.2-0.5-0.3-0.7,0C13.6,11.6,13.5,11.8,13.5,11.9z M12.6,10.2
				c-0.3,0-0.5-0.1-0.6-0.2c-0.2-0.2-0.5-0.8,0.1-1.7c0.3-0.5,0.7-0.8,1.2-0.8c0.4,0,0.8,0.2,1,0.6c0.2,0.5,0.1,1-0.4,1.5
				C13.6,10,13,10.2,12.6,10.2z M13.3,8.2c-0.2,0-0.4,0.2-0.6,0.4c-0.2,0.4-0.3,0.7-0.1,0.9c0,0,0,0,0.1,0c0.2,0,0.6-0.1,0.8-0.4
				c0.3-0.3,0.4-0.6,0.3-0.8C13.6,8.3,13.5,8.2,13.3,8.2z M7.6,9.5L7.6,9.5c-0.5,0-1-0.6-1.1-1.3c0-0.6,0.1-0.9,0.3-1.1
				C7.3,6.7,8,6.7,8.3,7.2c0.2,0.3,0.3,0.7,0.3,1.1C8.5,9.2,8,9.4,7.7,9.5C7.7,9.5,7.7,9.5,7.6,9.5z M7.6,7.5c-0.1,0-0.1,0-0.2,0.1
				C7.3,7.7,7.2,7.8,7.3,8.2c0,0.3,0.2,0.6,0.3,0.6c0.1,0,0.2-0.2,0.3-0.6c0-0.2,0-0.4-0.1-0.5C7.7,7.6,7.7,7.5,7.6,7.5z M10.3,9
				L10.3,9C10.3,9,10.3,9,10.3,9c-0.2,0-0.4-0.1-0.6-0.4C9.5,8.3,9.3,7.8,9.4,7.2C9.6,6.3,10.2,6,10.7,6c0.4,0,0.7,0.2,0.9,0.5
				c0.2,0.4,0.3,0.9,0,1.4C11.2,8.8,10.6,9,10.3,9z M10.7,6.7c-0.2,0-0.4,0.3-0.5,0.7c-0.1,0.4,0.1,0.8,0.2,0.9l0,0
				c0.2,0,0.4-0.2,0.6-0.6c0.1-0.3,0.1-0.5,0-0.7C10.9,6.8,10.8,6.7,10.7,6.7z"/>
		</g>
		<g>
			<path d="M17,18H2.7c-0.1,0-0.2-0.1-0.3-0.1c-0.1-0.1-0.1-0.2-0.1-0.3c0.9-3.2,1.3-8.7-0.3-14.1c0,0,0-0.1,0-0.1v-3
				c0-0.1,0.1-0.3,0.2-0.3c0.1-0.1,0.3,0,0.4,0l1.6,1.2l1.6-1.2C5.9,0,6.1,0,6.2,0.1l1.6,1.2l1.6-1.2C9.5,0,9.6,0,9.8,0.1l1.6,1.2
				l1.6-1.2C13,0,13.2,0,13.3,0.1l1.6,1.2l1.6-1.2C16.6,0,16.7,0,16.8,0C17,0.1,17,0.2,17,0.4v3c1.5,4.2,1,8.1,0.6,11.9
				c-0.1,0.8-0.2,1.6-0.3,2.4C17.3,17.9,17.2,18,17,18z M3.2,17.3h13.5c0.1-0.7,0.1-1.4,0.2-2.1c0.4-3.7,0.9-7.6-0.5-11.7
				c0,0,0-0.1,0-0.1V1.1l-1.2,1c-0.1,0.1-0.3,0.1-0.4,0l-1.6-1.2L11.5,2c-0.1,0.1-0.3,0.1-0.4,0L9.5,0.8L8,2C7.9,2.1,7.7,2.1,7.5,2
				L6,0.8L4.4,2C4.3,2.1,4.1,2.1,4,2l-1.2-1v2.2C4.3,8.6,4,13.9,3.2,17.3z"/>
		</g>
		<g>
			<path d="M14,3.8H2.4C2.2,3.8,2,3.6,2,3.4s0.2-0.4,0.4-0.4H14c0.2,0,0.4,0.2,0.4,0.4S14.2,3.8,14,3.8z"/>
		</g>
		<g>
			<path d="M3,18C3,18,3,18,3,18l-2.1-0.1c-0.2,0-0.3-0.1-0.3-0.3c-0.1-0.7-0.1-1.5-0.2-2.2c-0.4-3.6-0.9-7.8,1.8-12.2
				C2.2,3,2.4,2.9,2.6,3c0.2,0.1,0.2,0.3,0.1,0.5C0.2,7.8,0.6,11.6,1,15.3c0.1,0.7,0.1,1.3,0.2,1.9L3,17.3c0.2,0,0.3,0.2,0.3,0.4
				C3.4,17.8,3.2,18,3,18z"/>
		</g>
	</g>
</g>
</svg>
