<?xml version="1.0" encoding="utf-8"?>
<!-- Generator: Adobe Illustrator 18.0.0, SVG Export Plug-In . SVG Version: 6.00 Build 0)  -->
<!DOCTYPE svg PUBLIC "-//W3C//DTD SVG 1.1//EN" "http://www.w3.org/Graphics/SVG/1.1/DTD/svg11.dtd">
<svg version="1.1" id="Capa_1" xmlns="http://www.w3.org/2000/svg" xmlns:xlink="http://www.w3.org/1999/xlink" x="0px" y="0px"
	 viewBox="0 0 30.7 23" enable-background="new 0 0 30.7 23" xml:space="preserve">
<g>
	<path d="M26.9,0h-23C1.7,0,0,1.7,0,3.8v15.3C0,21.3,1.7,23,3.8,23h23c2.1,0,3.8-1.7,3.8-3.8V3.8C30.7,1.7,29,0,26.9,0z M20.5,10.2
		l8.1-7c0.1,0.2,0.1,0.4,0.1,0.6v15.3c0,0.1-0.1,0.3-0.1,0.4L20.5,10.2z M26.9,1.9c0.1,0,0.2,0,0.4,0.1L15.3,12.2L3.5,2
		c0.1,0,0.2-0.1,0.4-0.1H26.9z M2,19.6c0-0.1-0.1-0.2-0.1-0.4V3.8C1.9,3.6,2,3.5,2,3.3l8.1,7L2,19.6z M3.8,21.1
		c-0.2,0-0.4-0.1-0.5-0.1l8.3-9.5l3.1,2.7c0.2,0.2,0.4,0.2,0.6,0.2s0.4-0.1,0.6-0.2l3.1-2.7l8.3,9.5c-0.2,0.1-0.4,0.1-0.5,0.1H3.8z"
		/>
</g>
</svg>
