<?xml version="1.0" encoding="utf-8"?>
<!-- Generator: Adobe Illustrator 18.0.0, SVG Export Plug-In . SVG Version: 6.00 Build 0)  -->
<!DOCTYPE svg PUBLIC "-//W3C//DTD SVG 1.1//EN" "http://www.w3.org/Graphics/SVG/1.1/DTD/svg11.dtd">
<svg version="1.1" id="Capa_1" xmlns="http://www.w3.org/2000/svg" xmlns:xlink="http://www.w3.org/1999/xlink" x="0px" y="0px"
	 viewBox="0 0 13 16.7" enable-background="new 0 0 13 16.7" xml:space="preserve">
<g>
	<path d="M6.6,0L6.6,0C6.5,0,6.5,0,6.6,0C6.5,0,6.5,0,6.5,0v0C2.9,0.1,0,3,0,6.6c0,4.8,5.7,9.4,6.5,10.1C7.3,16,13,11.4,13,6.6
		C13,3,10.1,0.1,6.6,0z M6.6,9.4C4.7,9.4,3.2,7.9,3.2,6c0-1.9,1.5-3.4,3.4-3.4S10,4.1,10,6C10,7.9,8.4,9.4,6.6,9.4z"/>
</g>
</svg>
