<?xml version="1.0" encoding="utf-8"?>
<!-- Generator: Adobe Illustrator 18.0.0, SVG Export Plug-In . SVG Version: 6.00 Build 0)  -->
<!DOCTYPE svg PUBLIC "-//W3C//DTD SVG 1.1//EN" "http://www.w3.org/Graphics/SVG/1.1/DTD/svg11.dtd">
<svg version="1.1" id="Capa_1" xmlns="http://www.w3.org/2000/svg" xmlns:xlink="http://www.w3.org/1999/xlink" x="0px" y="0px"
	 viewBox="0 0 11.2 15.8" enable-background="new 0 0 11.2 15.8" xml:space="preserve">
<path d="M11.2,13.7l0-0.2c0-0.5-0.4-1.1-0.8-1.4l-1.6-1c-0.4-0.3-1.2-0.3-1.6,0l-0.8,0.5C4.3,10.3,3,8,3,5.5l0.8-0.5
	c0.4-0.2,0.8-0.9,0.8-1.4l0-1.9c0-0.5-0.3-1.2-0.8-1.4L3.7,0.2C3.3-0.1,2.6-0.1,2.1,0.2L0.9,0.8C0.7,1,0.5,1.4,0.5,1.4
	c-0.9,3-0.5,6.2,1,8.9C3,13,5.5,15,8.5,15.8c0,0,0.5,0,0.8-0.1l1.2-0.7C10.9,14.8,11.3,14.2,11.2,13.7z"/>
</svg>
