<?xml version="1.0" encoding="utf-8"?>
<!-- Generator: Adobe Illustrator 18.0.0, SVG Export Plug-In . SVG Version: 6.00 Build 0)  -->
<!DOCTYPE svg PUBLIC "-//W3C//DTD SVG 1.1//EN" "http://www.w3.org/Graphics/SVG/1.1/DTD/svg11.dtd">
<svg version="1.1" id="Capa_1" xmlns="http://www.w3.org/2000/svg" xmlns:xlink="http://www.w3.org/1999/xlink" x="0px" y="0px"
	 viewBox="0 0 10.4 13.2" enable-background="new 0 0 10.4 13.2" xml:space="preserve">
<g>
	<g>
		<path d="M3.1,10.1c0-0.2,0-0.4,0-0.6c0-3,0-6,0-9c0-0.2,0.1-0.4,0.2-0.6c0.2,0.1,0.4,0.1,0.5,0.2C4,0.4,4.3,0.7,4.5,0.9
			C4.8,0.6,5,0.4,5.3,0.2c0.3-0.3,0.5-0.3,0.7,0c0.2,0.2,0.5,0.4,0.8,0.7C7,0.6,7.3,0.4,7.6,0.2C7.8,0,8-0.1,8.2,0.2
			C8.5,0.4,8.7,0.6,9,0.9c0.3-0.3,0.5-0.5,0.8-0.7C9.9,0.1,10.1,0,10.2,0c0.1,0.1,0.1,0.3,0.2,0.4c0,0.1,0,0.1,0,0.2
			c0,3.4,0,6.9,0,10.3c0,1.5-0.7,2.2-2.2,2.2c-2,0-4,0-6.1,0c-1.8,0-2.3-1.3-2.1-2.8c0-0.1,0.3-0.3,0.5-0.3
			C1.3,10.1,2.2,10.1,3.1,10.1z M3.7,1c0,3.1,0,6.1,0,9.1c0.6,0,1.2,0,1.8,0c1.2,0,1.1-0.1,1.1,1c0,0.5,0.2,0.9,0.6,1.2
			c0.6,0.3,1.3,0.3,1.9,0c0.6-0.3,0.7-0.8,0.7-1.4c0-3.2,0-6.4,0-9.5c0-0.1,0-0.3,0-0.5C9.6,1.1,9.5,1.2,9.4,1.3
			c-0.3,0.3-0.5,0.3-0.8,0C8.4,1.1,8.1,0.9,7.9,0.7C7.6,0.9,7.3,1.2,7.1,1.4c-0.2,0.2-0.4,0.2-0.6,0C6.2,1.2,5.9,0.9,5.6,0.7
			C5.5,0.8,5.4,0.9,5.3,1C4.6,1.6,4.6,1.6,3.7,1z M0.7,10.8c-0.1,1.3,0.4,1.8,1.6,1.8c0.6,0,1.1,0,1.7,0c0.8,0,1.7,0,2.4,0
			c-0.2-0.6-0.3-1.2-0.5-1.8C4.2,10.8,2.4,10.8,0.7,10.8z"/>
	</g>
	<path d="M5.3,4.3H4.6C4.4,4.3,4.3,4.2,4.3,4v0c0-0.2,0.1-0.3,0.3-0.3l0.8,0c0.2,0,0.3,0.1,0.3,0.3v0C5.7,4.2,5.5,4.3,5.3,4.3z"/>
	<path d="M9,4.3H6.6C6.4,4.3,6.2,4.2,6.2,4v0c0-0.2,0.1-0.3,0.3-0.3l2.4,0c0.2,0,0.3,0.1,0.3,0.3v0C9.3,4.2,9.2,4.3,9,4.3z"/>
	<path d="M7,5.8l-2.4,0c-0.2,0-0.3-0.1-0.3-0.3v0c0-0.2,0.1-0.3,0.3-0.3H7c0.2,0,0.3,0.1,0.3,0.3v0C7.3,5.7,7.1,5.8,7,5.8z"/>
	<path d="M9,5.8H8.1c-0.2,0-0.3-0.1-0.3-0.3v0c0-0.2,0.1-0.3,0.3-0.3H9c0.2,0,0.3,0.1,0.3,0.3v0C9.3,5.7,9.2,5.8,9,5.8z"/>
	<path d="M5.3,7.2H4.6c-0.2,0-0.3-0.1-0.3-0.3v0c0-0.2,0.1-0.3,0.3-0.3h0.8c0.2,0,0.3,0.1,0.3,0.3v0C5.7,7.1,5.5,7.2,5.3,7.2z"/>
	<path d="M9,7.2H6.6c-0.2,0-0.3-0.1-0.3-0.3v0c0-0.2,0.1-0.3,0.3-0.3H9c0.2,0,0.3,0.1,0.3,0.3v0C9.3,7.1,9.2,7.2,9,7.2z"/>
</g>
</svg>
