<?xml version="1.0" encoding="utf-8"?>
<!-- Generator: Adobe Illustrator 18.0.0, SVG Export Plug-In . SVG Version: 6.00 Build 0)  -->
<!DOCTYPE svg PUBLIC "-//W3C//DTD SVG 1.1//EN" "http://www.w3.org/Graphics/SVG/1.1/DTD/svg11.dtd">
<svg version="1.1" id="Capa_1" xmlns="http://www.w3.org/2000/svg" xmlns:xlink="http://www.w3.org/1999/xlink" x="0px" y="0px"
	 viewBox="0 0 203.6 223" enable-background="new 0 0 203.6 223" xml:space="preserve">
<g>
	<g>
		<path d="M133.7,112.6c-0.3-1.7-0.7-3.5-1-5.5c0,0,0-4.7-2.8-8.5c-1.6,1.6-4.3,5.1-7.1,10.9l-20.1,41.7c-1.2,2.6-1.3,5.6-0.2,8.1
			c0.9,2.1,2.6,3.6,4.7,4.1c6.2,1.7,12.6,2.5,19.4,2.1c5.1-0.3,9.5-5.7,9.2-11.4l-2.1-41.3C133.7,112.8,133.7,112.7,133.7,112.6z"/>
		<path d="M101.8,223c56.1,0,101.8-45.7,101.8-101.8c0-41.5-25-77.3-60.7-93.1c-0.1,0.2-0.1,0.4-0.2,0.6c-1,4.1-2.4,8-4,11.6
			c30.7,14.1,52.1,45,52.1,80.9c0,20-6.7,38.3-17.8,53.2c-7.4-6.3-14.6-13.3-20-21.7c-6.9-10.8-11.2-16.1-14.5-23.7l1.3,25.1
			c0.4,7.9-5.6,15.1-12.9,15.5c-1.1,0.1-2.3,0.1-3.4,0.1c-5.9,0-11.7-0.8-17.3-2.4c-3.3-0.9-5.8-3.2-7.3-6.3
			c-1.6-3.5-1.5-7.8,0.2-11.4l20.1-41.7c0.8-1.7,4.2-8.4,7.8-11.9c-0.1-0.1-0.2-0.2-0.3-0.2c-4.9-3-9.2,0.8-22.5,0.6
			c-0.9-2.1-2.9-3.5-5.3-3.5c-2.1,0-3.9,1.1-4.9,2.7c-17.5-2.4-33.1-11-37.5-13.5c0-0.2,0.1-0.4,0.1-0.6c0-3.2-3.3-5.7-7.4-5.7
			c-4.1,0-7.4,2.6-7.4,5.7c0,2.1,1.5,3.9,3.6,4.9c0.3,8.5,4,36.8,37.6,44.9l-6.8,11.3c-2,3.4-2.5,7.3-1.2,10.7
			c1.1,3.2,3.6,5.5,6.8,6.7c3.5,1.2,7.2,2.4,11.1,3.5c0,0,5.7,14,10,22.1v24.6c-0.4,0-0.9,0.1-1.3,0.1c-49.1,0-89-39.9-89-89
			c0-34.7,20-64.7,49-79.4c-2.5-5.4-4-9.8-4.7-12C23.3,46.3,0,81.1,0,121.2C0,177.3,45.7,223,101.8,223z M107,192.2
			c3.5,5.3,7.6,10.4,12.5,14.9v1.3c-4.1,0.8-8.3,1.3-12.5,1.5V192.2z"/>
		<path d="M64.1,26c0,0,8.9,33.9,34.9,43.8c0,0,27.8-14.2,34.7-43.4c0-0.1,0-0.1,0-0.2c0.8-2.2,1.3-4.5,1.3-7
			C135,8.7,126.3,0,115.6,0c-7.2,0-13.4,4-16.7,9.8C95.6,4,89.4,0,82.2,0C71.5,0,62.9,8.7,62.9,19.3C62.9,21.7,63.4,23.9,64.1,26
			C64.1,26,64.1,26,64.1,26z M85,37.2l12.1,4.5L108,18.6c1.1-2.3,3.9-3.8,6.4-3.3l3.9,0.7c2.5,0.4,3.3,2.5,1.9,4.5L97.9,53.1
			c-1.4,2.1-3.7,2.1-5.1,0l-9.5-13.7C81.9,37.3,82.6,36.4,85,37.2z"/>
	</g>
</g>
</svg>
