<?xml version="1.0" encoding="utf-8"?>
<!-- Generator: Adobe Illustrator 18.0.0, SVG Export Plug-In . SVG Version: 6.00 Build 0)  -->
<!DOCTYPE svg PUBLIC "-//W3C//DTD SVG 1.1//EN" "http://www.w3.org/Graphics/SVG/1.1/DTD/svg11.dtd">
<svg version="1.1" id="Capa_1" xmlns="http://www.w3.org/2000/svg" xmlns:xlink="http://www.w3.org/1999/xlink" x="0px" y="0px"
	 viewBox="0 0 78.1 106.4" enable-background="new 0 0 78.1 106.4" xml:space="preserve">
<g id="XMLID_158_">
	<path id="XMLID_4_" d="M69.2,22.7h-3.8c-4.9,0-8.9,4-8.9,8.9v0.7l11.3-8c0,0,0,0,0,0c0,0,0,0,0,0L52.8,38l-15.3,6.5
		c-2.3,1-3.3,3.6-2.3,5.8c0.7,1.7,2.4,2.7,4.1,2.7c0.6,0,1.2-0.1,1.7-0.4l16-6.8c0.5-0.2,0.9-0.5,1.3-0.8l15.5-14.2c0,0,0,0,0,0
		c0,0,0,0,0,0L60,47c-0.4,0.5-0.9,0.8-1.4,1L58,48.3L56.4,49l0,52c0,2.9,2.4,5.3,5.3,5.3c1.2,0,2.3-0.4,3.2-1.1
		c-0.7-1.3-1.1-2.7-1.1-4.2V69.3h3.6v31.7c0,2.9,2.4,5.3,5.3,5.3c2.9,0,5.3-2.4,5.3-5.3c0,0,0-44.8,0-69.4
		C78.1,26.7,74.1,22.7,69.2,22.7z"/>
	<path id="XMLID_3_" d="M67.3,20.7c5.7,0,10.4-4.6,10.4-10.4C77.6,4.6,73,0,67.3,0c-5.7,0-10.4,4.6-10.4,10.4
		C56.9,16.1,61.5,20.7,67.3,20.7z"/>
	<path id="XMLID_2_" d="M10.8,20.7c5.7,0,10.4-4.6,10.4-10.4C21.2,4.6,16.6,0,10.8,0C5.1,0,0.5,4.6,0.5,10.4
		C0.5,16.1,5.1,20.7,10.8,20.7z"/>
	<path id="XMLID_1_" d="M23.9,37.3L12,25.9l9.6,7.4v-1.7c0-4.9-4-8.9-8.9-8.9H8.9c-4.9,0-8.9,4-8.9,8.9c0,25.4,0,69.4,0,69.4
		c0,2.9,2.4,5.3,5.3,5.3c2.9,0,5.3-2.4,5.3-5.3V69.3h3.6v31.7c0,1.5-0.4,3-1.1,4.2c0.9,0.7,2,1.1,3.2,1.1c2.9,0,5.3-2.4,5.3-5.3
		l0-52.1l-3.5-2.5L17,45.6c-0.1,0-0.1-0.1-0.2-0.2l-11-13.2l12.3,11.8c0.3,0.3,0.6,0.5,0.9,0.7l14.6,8.2c-0.4-0.5-0.7-1-0.9-1.6
		c-1.2-2.9-0.4-6.1,1.9-8.1L23.9,37.3z"/>
</g>
<path d="M56.4,48.8l0,16.6h21.9l0-34.2c0,0-0.7-7.5-9-9c0,0-12.4-1.9-12.9,10.1l8-5.6L58,33.3l4.2,8.2l8.6-7.9l-9.3,11.6
	C61.4,45.2,60.1,48.5,56.4,48.8z"/>
</svg>
