<?xml version="1.0" encoding="utf-8"?>
<!-- Generator: Adobe Illustrator 18.0.0, SVG Export Plug-In . SVG Version: 6.00 Build 0)  -->
<!DOCTYPE svg PUBLIC "-//W3C//DTD SVG 1.1//EN" "http://www.w3.org/Graphics/SVG/1.1/DTD/svg11.dtd">
<svg version="1.1" id="Capa_1" xmlns="http://www.w3.org/2000/svg" xmlns:xlink="http://www.w3.org/1999/xlink" x="0px" y="0px"
	 viewBox="0 0 65.3 102.7" enable-background="new 0 0 65.3 102.7" xml:space="preserve">
<g>
	<g>
		<path d="M49.4,6.7v6.9c0,0.3-0.2,0.5-0.5,0.5H16.4c-0.3,0-0.5-0.2-0.5-0.5V6.7c0-0.3,0.2-0.5,0.5-0.5h8.4V0h15.9v6.2H49
			C49.2,6.2,49.4,6.5,49.4,6.7L49.4,6.7z M65.3,22.5v72c0,4.5-3.6,8.1-8.1,8.1h-49C3.6,102.7,0,99,0,94.5v-72c0-4.5,3.6-8.1,8.1-8.1
			h2.5c0.4,2.8,2.8,5,5.7,5H49c2.9,0,5.4-2.2,5.7-5h2.5C61.7,14.3,65.3,18,65.3,22.5L65.3,22.5z M9.1,38.4c0,1.5,1.2,2.7,2.7,2.7
			h35.1c1.5,0,2.7-1.2,2.7-2.7c0-1.5-1.2-2.7-2.7-2.7H11.8C10.3,35.7,9.1,36.9,9.1,38.4L9.1,38.4z M49.6,63.1c0-1.5-1.2-2.7-2.7-2.7
			H11.8c-1.5,0-2.7,1.2-2.7,2.7c0,1.5,1.2,2.7,2.7,2.7h35.1C48.4,65.8,49.6,64.6,49.6,63.1L49.6,63.1z M57.6,50.7
			c0-1.5-1.2-2.7-2.7-2.7H11.8c-1.5,0-2.7,1.2-2.7,2.7c0,1.5,1.2,2.7,2.7,2.7H55C56.5,53.4,57.6,52.2,57.6,50.7L57.6,50.7z
			 M57.6,50.7"/>
	</g>
</g>
</svg>
