<?xml version="1.0" encoding="utf-8"?>
<!-- Generator: Adobe Illustrator 18.0.0, SVG Export Plug-In . SVG Version: 6.00 Build 0)  -->
<!DOCTYPE svg PUBLIC "-//W3C//DTD SVG 1.1//EN" "http://www.w3.org/Graphics/SVG/1.1/DTD/svg11.dtd">
<svg version="1.1" id="Capa_1" xmlns="http://www.w3.org/2000/svg" xmlns:xlink="http://www.w3.org/1999/xlink" x="0px" y="0px"
	 viewBox="0 0 29.1 29.1" enable-background="new 0 0 29.1 29.1" xml:space="preserve">
<g>
	<g>
		<path d="M28.2,22.7L28.2,22.7c-0.1,0.2-0.3,0.3-0.5,0.5c-1.8,1.6-3,1.7-4.4,1.8c-0.8,0.1-1.7,0.1-2.9,0.6c-1.3,0.5-2.2,1.2-3,1.8
			c-1.2,0.9-2.4,1.8-4.3,1.7c-1.5,0.1-2.9-0.7-3.7-2.2c-1-1.9-0.9-5.1,1-7.4c0.6-0.7,0.7-1.5,0.9-2.2c0.1-0.3,0.1-0.6,0.2-0.9
			c0.2-0.6,0.4-1.1,0.9-1.6c1.7-2,5.2-2.9,7.3-1.8c0.5,0.2,0.9,0.5,1.3,0.8c0.5,0.3,0.9,0.6,1.3,0.7c1.9,0.3,3.6,1,4.7,2.1
			C28.9,18.1,29.9,20.8,28.2,22.7z M13.5,15.7c-0.3,0.3-0.5,0.7-0.6,1.1c-0.1,0.3-0.1,0.5-0.2,0.8c-0.2,0.9-0.3,1.8-1.2,2.8
			c-1.6,1.9-1.7,4.5-0.9,6c0.3,0.6,1,1.6,2.5,1.5c1.5,0,2.4-0.6,3.5-1.5c0.9-0.6,1.9-1.4,3.3-2c1.4-0.6,2.4-0.6,3.3-0.7
			c1.2-0.1,2.1-0.1,3.6-1.5c0.1-0.1,0.2-0.2,0.3-0.3c1.2-1.3,0.1-3.3-1-4.3c-1-0.9-2.4-1.5-4.1-1.8l-0.1,0c-0.6-0.2-1.2-0.6-1.7-0.9
			c-0.4-0.3-0.8-0.5-1.2-0.7C17.6,13.4,14.8,14.1,13.5,15.7z M27.5,11.7c-0.9,1.1-2.1,1.6-2.9,1.3c-0.9-0.3-2.4-1.3-2.5-4.7
			c-0.1-1.7,0.5-2.8,1-3.4c1-1.2,2.6-1.5,3.9-0.9c1.5,0.7,2.2,2.6,1.8,4.9C28.7,9.9,28.2,10.9,27.5,11.7z M24.1,5.8
			c-0.4,0.4-0.8,1.2-0.7,2.5c0.1,1.9,0.7,3.1,1.6,3.5c0.2,0.1,0.9-0.2,1.5-0.9c0.5-0.6,0.9-1.4,1-2.1c0.3-1.7-0.1-3-1.1-3.5
			C25.7,4.9,24.7,5.1,24.1,5.8z M19.6,9.7c-0.6,0.6-1.2,1-1.8,1c-1.1,0-3-0.6-4.3-4.3c-0.7-2-0.5-3.8,0.7-5.1c1-1.1,2.4-1.6,3.8-1.2
			c1.7,0.5,2.8,2.2,3.1,4.6C21.3,6.7,20.5,8.7,19.6,9.7z M15.1,2.2c-0.8,0.9-0.9,2.3-0.4,3.8c0.8,2.2,1.9,3.4,3.1,3.4
			c0.2,0,0.4-0.1,0.8-0.5c0.7-0.8,1.3-2.4,1.1-3.9c-0.2-1.9-1.1-3.2-2.2-3.5C16.6,1.2,15.7,1.5,15.1,2.2z M8,19.7L8,19.7
			c-1,1.2-3.9,1-5.7-0.3C0.6,18.1,0.1,16.9,0,16c-0.1-0.9,0.2-1.7,0.7-2.4c0.6-0.7,1.6-1.1,2.6-1.1c1.2,0,2.5,0.6,3.5,1.7
			c2.2,2.6,1.8,4.3,1.4,5.1C8.1,19.5,8.1,19.6,8,19.7z M1.8,14.5c-0.2,0.3-0.5,0.7-0.4,1.4c0.1,0.6,0.4,1.5,1.7,2.4
			c1.4,1.1,3.5,1,3.9,0.5c0,0,0,0,0,0c0.5-0.9,0-2.2-1.2-3.6c-0.7-0.8-1.6-1.3-2.5-1.3C2.7,13.8,2.1,14.1,1.8,14.5z M12.2,12.5
			L12.2,12.5c-0.1,0.1-0.1,0.1-0.2,0.2c-0.4,0.4-1.1,0.6-1.9,0.5c-1.3-0.1-3.3-1-4.5-2.6c-1.6-2.3-1.8-4.5-0.5-6
			c0.8-0.9,2.1-1.4,3.4-1.2c1.6,0.3,3,1.4,3.8,3.3C13.6,9.9,12.9,11.6,12.2,12.5z M6.1,5.5c-0.9,1-0.7,2.7,0.6,4.4
			c0.9,1.2,2.4,2,3.5,2.1c0.5,0,0.8-0.1,0.9-0.2c0.9-0.8,0.9-2.5,0-4.6c-0.6-1.4-1.6-2.3-2.8-2.5C7.4,4.6,6.6,4.9,6.1,5.5z"/>
	</g>
	<path d="M14.9,13.8c0,0-2.8,1.6-2.6,3.4c0,0-0.9,2.7-1.8,3.7c0,0-3.7,7.2,4.1,7.7c0,0,2.2-0.7,3.8-2.8c0,0,1.9-1.7,6-1.6
		c0,0,4.5-0.7,4-4.6c0,0-1-3.5-5.3-4.3c0,0-1.2,0.1-3.2-1.4C19.8,13.8,17.9,12.5,14.9,13.8z"/>
	<path d="M1.5,13.6c0,0,2.8-1.6,4.5,0.7c0.1,0.1,0.1,0.1,0.2,0.2c1.7,2.7,2,3,1.8,4.5c0,0-1.7,1.1-2.7,0.8
		C5.3,19.9-0.8,17.6,1.5,13.6z"/>
	<path d="M5.6,5.3c0,0,1.1-2.1,3.3-0.7c0,0,2.3,0.6,2.8,3.8c0,0,0.8,3.5-0.9,4.3C10.7,12.7,4.2,10.9,5.6,5.3z"/>
	<path d="M15.2,1.5c0,0,2.8-1.3,3.7,0.2c0,0,1.8,2.7,1,5.6c0,0-1.3,4-3.8,1.8C16.1,9.1,12.4,4.2,15.2,1.5z"/>
	<path d="M26.6,4.4c0,0,2,1.4,1.7,3.4c0,0-1.9,4.9-3.2,4.9c0,0-3.5-2.8-1.9-6.3C23.2,6.4,24.4,3.4,26.6,4.4z"/>
</g>
</svg>
