<?xml version="1.0" encoding="utf-8"?>
<!-- Generator: Adobe Illustrator 18.0.0, SVG Export Plug-In . SVG Version: 6.00 Build 0)  -->
<!DOCTYPE svg PUBLIC "-//W3C//DTD SVG 1.1//EN" "http://www.w3.org/Graphics/SVG/1.1/DTD/svg11.dtd">
<svg version="1.1" id="Capa_1" xmlns="http://www.w3.org/2000/svg" xmlns:xlink="http://www.w3.org/1999/xlink" x="0px" y="0px"
	 viewBox="0 0 35.8 34.6" enable-background="new 0 0 35.8 34.6" xml:space="preserve">
<g>
	<path d="M23.5,8.5c-2.3,0.5-4.6-1-5.1-3.3c-0.5-2.3,1-4.6,3.3-5.1c2.3-0.5,4.6,1,5.1,3.3C27.3,5.7,25.8,8,23.5,8.5z"/>
	<path d="M0.5,27.2l1.9-0.8l3.2-5.6l4.1-3l1.8,1.1l1.9-0.7c0.3-0.6,0.8-1,1.5-1c3.9,0,6.1-2.8,6.3-5.4c0.1-1.3,1.2-2.4,2.3-3
		c0,0,0.4-0.2,0.9-0.3c0.5-0.1,1-0.1,1-0.1l0,0c1.5,0,3.2,0.9,3.6,2.6l2,9.3c0.1,0.6,0.1,1.1-0.1,1.6c0,0.1-2.1,5.2-2.1,5.2h4.7
		c1.3,0,2.3,1,2.3,2.3c0,1.3-1,2.3-2.3,2.3h-8.1c-0.8,0-1.5-0.4-1.9-1c-0.4-0.6-0.5-1.4-0.2-2.1l1.3-3.2l-2.8,0.8l1,5.7
		c0.2,1.2-0.6,2.4-1.8,2.7c-0.1,0-0.3,0-0.4,0c-1.1,0-2-0.8-2.2-1.9L17,24.9c-0.2-1.2,0.5-2.3,1.6-2.6l4.5-1.3l-0.7-3.4
		c-1.6,1.9-4.1,2.9-7.4,2.9c-0.4,0-0.8-0.2-1.1-0.4l-1.6,0.6L8,29l0.2,4.5c0,0.5-0.4,1-0.9,1c0,0,0,0,0,0c-0.5,0-1-0.4-1-0.9
		l-0.1-2.9l-0.5,3.1c-0.1,0.5-0.5,0.8-1,0.8c0,0-0.1,0-0.2,0c-0.5-0.1-0.9-0.6-0.8-1.1l0.8-5l-1.3-0.8L1,28.6
		c-0.1,0-0.2,0.1-0.3,0.1c-0.3,0-0.6-0.2-0.7-0.5C-0.1,27.8,0.1,27.4,0.5,27.2z"/>
	<path d="M9.3,15.7C9.1,15.9,9,16,8.9,16.1c-0.1,0.1,0.4,1.3,0.4,1.3l-4,2.9c-0.3-0.4-0.5-0.8-0.8-1.3c-0.6-0.9-1.2-1.9-1.8-2.7
		c-0.2-0.2-0.4-0.4-0.7-0.6c-1.1-0.9-0.4-1.4-0.2-1.5c0.4-0.3,0.9-0.2,1.4,0c0.3,0.1,0.5,0.3,0.7,0.4c0.1,0,0.1,0,0.2,0
		c0.1-0.1,0.2-0.2,0.4-0.2c0.7-0.4,1.4-0.4,2.2-0.7c0.3-0.1,1.9-2,2.7-1.5c0.9,0.5,1,1.5,0.7,2.4C9.9,15,9.7,15.4,9.3,15.7z"/>
</g>
</svg>
