<?xml version="1.0" encoding="utf-8"?>
<!-- Generator: Adobe Illustrator 18.0.0, SVG Export Plug-In . SVG Version: 6.00 Build 0)  -->
<!DOCTYPE svg PUBLIC "-//W3C//DTD SVG 1.1//EN" "http://www.w3.org/Graphics/SVG/1.1/DTD/svg11.dtd">
<svg version="1.1" id="Capa_1" xmlns="http://www.w3.org/2000/svg" xmlns:xlink="http://www.w3.org/1999/xlink" x="0px" y="0px"
	 viewBox="0 0 34.4 26.4" enable-background="new 0 0 34.4 26.4" xml:space="preserve">
<g>
	<rect x="20.2" y="8.1" width="8.2" height="6.1"/>
	<path d="M5.2,26.4h28.1c0.6,0,1.2-0.5,1.2-1.2V1.2c0-0.6-0.5-1.2-1.2-1.2H5.2C4.5,0,4,0.5,4,1.2v24.1C4,25.9,4.5,26.4,5.2,26.4z
		 M18.3,7.2c0-0.5,0.4-0.9,0.9-0.9h10c0.5,0,0.9,0.4,0.9,0.9v7.9c0,0.5-0.4,0.9-0.9,0.9h-10c-0.5,0-0.9-0.4-0.9-0.9L18.3,7.2
		L18.3,7.2z M9.2,6.3h6c0.5,0,0.9,0.4,0.9,0.9c0,0.5-0.4,0.9-0.9,0.9h-6c-0.5,0-0.9-0.4-0.9-0.9S8.7,6.3,9.2,6.3z M9.2,10.3h6
		c0.5,0,0.9,0.4,0.9,0.9c0,0.5-0.4,0.9-0.9,0.9h-6c-0.5,0-0.9-0.4-0.9-0.9C8.3,10.7,8.7,10.3,9.2,10.3z M9.2,14.3h6
		c0.5,0,0.9,0.4,0.9,0.9c0,0.5-0.4,0.9-0.9,0.9h-6c-0.5,0-0.9-0.4-0.9-0.9C8.3,14.7,8.7,14.3,9.2,14.3z M9.2,20.3h20.1
		c0.5,0,0.9,0.4,0.9,0.9c0,0.5-0.4,0.9-0.9,0.9H9.2c-0.5,0-0.9-0.4-0.9-0.9C8.3,20.7,8.7,20.3,9.2,20.3z"/>
	<path d="M2.1,25.2V4h-1C0.5,4,0,4.5,0,5.2v20.1c0,0.6,0.5,1.2,1.2,1.2h1.2C2.2,26,2.1,25.7,2.1,25.2z"/>
</g>
</svg>
