<?xml version="1.0" encoding="utf-8"?>
<!-- Generator: Adobe Illustrator 18.0.0, SVG Export Plug-In . SVG Version: 6.00 Build 0)  -->
<!DOCTYPE svg PUBLIC "-//W3C//DTD SVG 1.1//EN" "http://www.w3.org/Graphics/SVG/1.1/DTD/svg11.dtd">
<svg version="1.1" id="Capa_1" xmlns="http://www.w3.org/2000/svg" xmlns:xlink="http://www.w3.org/1999/xlink" x="0px" y="0px"
	 viewBox="0 0 15 14.3" enable-background="new 0 0 15 14.3" xml:space="preserve">
<g>
	<g>
		<path d="M14.3,14.3L14.3,14.3c-0.3,0-2.4-0.4-4-1.2c-0.9,0.3-1.8,0.5-2.8,0.5C3.4,13.6,0,10.6,0,6.8S3.4,0,7.5,0S15,3.1,15,6.8
			c0,1.3-0.4,2.5-1.1,3.5c0.1,1.3,0.5,2.3,0.9,2.7c0.2,0.2,0.3,0.6,0.1,0.8C14.8,14.1,14.6,14.3,14.3,14.3z M10.4,12l0.2,0.1
			c1,0.6,2.3,0.9,3,1.1c-0.5-0.8-0.7-2-0.8-2.9l0-0.2L13,9.9c0.7-0.9,1-2,1-3.1C14,3.6,11.1,1,7.5,1S1,3.6,1,6.8s2.9,5.8,6.5,5.8
			c0.9,0,1.8-0.2,2.7-0.5L10.4,12z"/>
	</g>
	<g>
		<circle cx="4.7" cy="7" r="1.1"/>
	</g>
	<g>
		<circle cx="7.8" cy="7" r="1.1"/>
	</g>
	<g>
		<circle cx="11" cy="7" r="1.1"/>
	</g>
</g>
</svg>
