<?xml version="1.0" encoding="utf-8"?>
<!-- Generator: Adobe Illustrator 18.0.0, SVG Export Plug-In . SVG Version: 6.00 Build 0)  -->
<!DOCTYPE svg PUBLIC "-//W3C//DTD SVG 1.1//EN" "http://www.w3.org/Graphics/SVG/1.1/DTD/svg11.dtd">
<svg version="1.1" id="Capa_1" xmlns="http://www.w3.org/2000/svg" xmlns:xlink="http://www.w3.org/1999/xlink" x="0px" y="0px"
	 viewBox="0 0 45.3 39.3" enable-background="new 0 0 45.3 39.3" xml:space="preserve">
<g>
	<g>
		<path d="M30.2,18.1c3.7,0,6.8-4.1,6.8-9.1c0-5-3-9.1-6.8-9.1c-3.7,0-6.8,4.1-6.8,9.1C23.4,14.1,26.5,18.1,30.2,18.1z M30.2,1.5
			c2.9,0,5.3,3.4,5.3,7.6c0,4.2-2.4,7.6-5.3,7.6c-2.9,0-5.3-3.4-5.3-7.6C24.9,4.9,27.3,1.5,30.2,1.5z"/>
		<path d="M15.1,18.1c3.7,0,6.8-4.1,6.8-9.1c0-5-3-9.1-6.8-9.1c-3.7,0-6.8,4.1-6.8,9.1C8.3,14.1,11.4,18.1,15.1,18.1z M15.1,1.5
			c2.9,0,5.3,3.4,5.3,7.6c0,4.2-2.4,7.6-5.3,7.6c-2.9,0-5.3-3.4-5.3-7.6C9.8,4.9,12.2,1.5,15.1,1.5z"/>
		<path d="M40,14.4c-2.9,0-5.3,3-5.3,6.8c0,3.7,2.4,6.8,5.3,6.8c2.9,0,5.3-3,5.3-6.8C45.3,17.4,42.9,14.4,40,14.4z M40,26.4
			c-2.1,0-3.8-2.4-3.8-5.3c0-2.9,1.7-5.3,3.8-5.3c2.1,0,3.8,2.4,3.8,5.3C43.8,24.1,42.1,26.4,40,26.4z"/>
		<path d="M5.3,14.4c-2.9,0-5.3,3-5.3,6.8c0,3.7,2.4,6.8,5.3,6.8c2.9,0,5.3-3,5.3-6.8C10.6,17.4,8.2,14.4,5.3,14.4z M5.3,26.4
			c-2.1,0-3.8-2.4-3.8-5.3c0-2.9,1.7-5.3,3.8-5.3c2.1,0,3.8,2.4,3.8,5.3C9.1,24.1,7.4,26.4,5.3,26.4z"/>
		<path d="M31.6,22c-3.4-2.7-7.9-3.7-12.3-2.8c-6.5,1.5-11.1,7.5-11,14.3c0.1,2.3,0.7,4,2,4.9c1.5,1.1,3.8,1.1,6.9,0.2
			c3.5-1.1,7.3-1.1,11,0c1.4,0.4,2.7,0.6,3.7,0.6c1.3,0,2.3-0.3,3.1-0.9c1.3-1,2-2.7,2-5.1C37,28.8,35,24.8,31.6,22z M34.1,37.2
			c-1.1,0.8-2.9,0.8-5.4,0c-2-0.6-4.1-0.9-6.1-0.9c-2,0-3.9,0.3-5.8,0.9c-2.6,0.8-4.5,0.8-5.6,0.1c-0.9-0.6-1.3-1.9-1.4-3.7
			c-0.1-6.1,4-11.4,9.8-12.8c3.9-0.9,7.9,0,11,2.5c3.1,2.5,4.8,6.1,4.8,10C35.5,35.2,35,36.5,34.1,37.2z"/>
	</g>
</g>
</svg>
