<?xml version="1.0" encoding="utf-8"?>
<!-- Generator: Adobe Illustrator 18.0.0, SVG Export Plug-In . SVG Version: 6.00 Build 0)  -->
<!DOCTYPE svg PUBLIC "-//W3C//DTD SVG 1.1//EN" "http://www.w3.org/Graphics/SVG/1.1/DTD/svg11.dtd">
<svg version="1.1" id="Capa_1" xmlns="http://www.w3.org/2000/svg" xmlns:xlink="http://www.w3.org/1999/xlink" x="0px" y="0px"
	 viewBox="0 0 39.9 42.2" enable-background="new 0 0 39.9 42.2" xml:space="preserve">
<g>
	<path d="M26.3,42.2c-1.2,0-2.3-0.1-3.4-0.1c-1.1,0-2.1-0.1-3.1-0.1h-3.5c-0.5,0-1-0.2-1.3-0.6c-0.4-0.4-0.5-0.8-0.5-1.4
		c0.1-1.6,1.3-3,2.9-3.5c-1.3-1.5-1.8-3.3-1.5-5.1c0.3-1.5,1.2-2.9,2.5-3.8c1.7-1.2,4.1-1.6,6.4-1.1c1.1,0.2,2.1,0.6,3,1.2
		c0.2,0.1,0.3,0.3,0.4,0.5c0.1,0.2,0,0.4-0.1,0.6c-0.2,0.4-0.8,0.5-1.1,0.3c-0.8-0.5-1.6-0.8-2.5-1c-1.9-0.4-3.8-0.1-5.2,0.9
		c-1,0.7-1.6,1.6-1.8,2.7c-0.4,2,1,3.8,2.3,4.8c0.3,0.2,0.4,0.6,0.3,1c-0.1,0.3-0.4,0.5-0.8,0.5l-0.1,0c-1.7-0.2-3.1,0.8-3.1,2.1
		c0,0.1,0,0.1,0.1,0.1c0,0,0.1,0.1,0.1,0.1h3.5c1,0,2,0,3.1,0.1c1.2,0,2.3,0.1,3.4,0.1c3.1,0,6.6-0.3,9-2.8c2-2,3.1-4.7,2.9-7.5
		c-0.1-2.6-1.5-5.1-3.7-6.5c-0.4-0.3-0.5-0.8-0.2-1.1c0.3-0.4,0.8-0.5,1.2-0.2c2.6,1.8,4.2,4.7,4.4,7.8c0.2,3.2-1.1,6.4-3.4,8.8
		C33.6,41.8,29.5,42.2,26.3,42.2z M12.6,42H7.7c-0.5,0-1-0.2-1.3-0.6c-0.4-0.4-0.5-0.8-0.5-1.4c0.1-2.1,2-3.7,4.3-3.7
		c0.5,0,0.8-0.2,0.9-0.4c0.5-0.6,0.6-1.9,0.3-3.9c-0.2-1-0.4-1.9-0.7-2.9c-0.8-2.6-1.6-5.3-0.4-9c0.3-0.9,0.7-1.7,1-2.4
		c0.3-0.7,0.8-1.6,0.7-1.9c0,0-0.1-0.2-0.9-0.4c-3.9-0.8-7.2-1.8-9.3-6.5C1.6,8.7,1.5,8.3,1.4,8C0.5,7.6,0,6.7,0,5.8
		c0-1.3,1.1-2.4,2.4-2.4c0.7,0,1.3,0.3,1.7,0.8c0.7-0.1,1.6-0.1,2.2,0C8,4.2,8.9,3.6,10.2,2.5c2.3-2,5.1-2.8,7.9-2.3
		c2.5,0.5,4.8,2,6,4.3c5.5,4.8,4,8.3,3.1,9.5c-0.8,1.1-2,1.9-3.3,2.4c0,0,0,0.1,0,0.2c0.1,0.6,0.3,1.2,0.5,1.7
		c1,2.1,2.8,3.9,4.7,5.8c3.3,3.3,6.8,6.7,6.3,12.5c0,0.4-0.4,0.8-0.8,0.8l0,0c-0.5,0-0.8-0.4-0.8-0.9c0.4-5.1-2.8-8.2-5.8-11.2
		c-1.9-1.9-3.9-3.8-5-6.2c-0.3-0.7-0.6-1.4-0.7-2.2c0,0,0-0.1,0-0.1c-1.3,0.1-2.6-0.1-3.6-0.7c-1.4-0.8-4.3-3.3-1.2-10.2
		c0.2-0.4,0.7-0.6,1.1-0.4C19,5.5,19.2,5.9,19,6.4c-1.8,4-1.6,6.9,0.5,8.1c0.6,0.3,1.4,0.5,2.2,0.5c1.7,0,3.4-0.8,4.2-2
		c1.4-2,0.3-4.7-3-7.4c-0.1-0.1-0.1-0.1-0.2-0.2c-1-1.8-2.8-3.2-5-3.6c-2.3-0.4-4.6,0.3-6.5,2C9.8,5,8.5,5.9,6.2,5.8
		c-0.3,0-0.6,0-0.9,0c-0.5,0-1,0-1.4,0.1l-0.2,0C3.4,5.9,3.2,5.7,3,5.5C2.9,5.2,2.6,5.1,2.4,5.1C2,5.1,1.7,5.4,1.7,5.8
		c0,0.3,0.2,0.6,0.6,0.7c0.4,0.1,0.6,0.3,0.7,0.7C3,7.6,3.1,8,3.3,8.4c1.7,3.9,4.6,4.8,8.1,5.5c1.1,0.2,1.7,0.6,2,1.2
		c0.5,1,0,2.1-0.7,3.3c-0.3,0.7-0.7,1.4-0.9,2.2c-1,3.2-0.3,5.6,0.4,8c0.3,1,0.6,2.1,0.8,3.2c0.2,1.6,0.4,3.9-0.7,5.2
		c-0.5,0.6-1.3,0.9-2.2,0.9c-1.4,0-2.6,0.9-2.6,2.1c0,0.1,0,0.1,0.1,0.1c0,0,0.1,0.1,0.1,0.1h4.9c0.5,0,0.8,0.4,0.8,0.8
		S13,42,12.6,42z"/>
</g>
</svg>
