<?xml version="1.0" encoding="utf-8"?>
<!-- Generator: Adobe Illustrator 18.0.0, SVG Export Plug-In . SVG Version: 6.00 Build 0)  -->
<!DOCTYPE svg PUBLIC "-//W3C//DTD SVG 1.1//EN" "http://www.w3.org/Graphics/SVG/1.1/DTD/svg11.dtd">
<svg version="1.1" id="Capa_1" xmlns="http://www.w3.org/2000/svg" xmlns:xlink="http://www.w3.org/1999/xlink" x="0px" y="0px"
	 viewBox="0 0 48.5 43.3" enable-background="new 0 0 48.5 43.3" xml:space="preserve">
<g>
	<g>
		<path d="M40.1,43.3c-0.1,0-0.3,0-0.5,0l-0.3,0c-0.2,0-0.4,0-0.6,0c-0.8,0-1.5,0-2.1-0.4c-0.8-0.5-1.2-1.4-0.9-2.1
			c0.2-0.4,0.5-1.3,1.4-1.6c0.5-0.1,1.1-0.2,1.4-0.2c0.1-0.2,0.2-1,0.3-1.8c0.2-1.7-0.3-3.1-1.5-4.1c-0.2-0.2-0.4-0.3-0.6-0.4
			l-0.1-0.1c-0.2-0.2-0.4-0.4-0.5-0.5c-0.5-0.4-0.7-0.7-0.8-0.9c-0.1-0.1-0.1-0.1-0.4-0.2c-1.2-0.4-1.5-0.7-2.1-1.4
			c-0.3-0.4-0.5-1-0.7-1.6c-0.1-0.3-0.2-0.7-0.4-1c-0.1-0.1-0.3-0.2-0.5-0.3c-0.1,0-0.1-0.1-0.2-0.1l-0.1-0.1l0-0.2
			c-0.1-0.4-0.3-0.7-0.6-0.9L30,25.1c-0.4-0.2-0.8-0.2-1.3,0.1c-0.4,0.2-0.7,0.3-1.2,0.4l-0.3,0.1c-0.5,0.1-1.1,0.2-1.6,0.3
			c-1.1,0.1-2.1,0.3-3.1,0.8c-0.8,0.4-1.4,1-1.9,1.6l-0.1,0.1l-0.2,0.1c-0.2,0.2-0.5,0.5-0.8,0.7c0,0-0.1,0.1-0.1,0.1l-0.1,0.5
			l-0.1,0c0,0.2-0.1,0.4-0.2,0.5l0,0.1c-0.1,0.6-0.2,1.2-0.4,1.7l0,0.3c0,0.3-0.1,0.5-0.3,0.7l-0.1,0.2c0,0.3,0.1,0.5,0.1,0.7
			l0.1,0.4l-0.2,0.4c-0.1,0.2-0.3,0.3-0.4,0.3l-0.2,0.4l-0.1,0l0,0.1l-0.1,0l0,0L17.2,36c-0.2,1.1-0.5,2-0.7,2.5
			c-0.4,1.1-1.3,2.3-2.4,2.7c-0.7,0.2-2,0.3-2.8,0.3c-0.3,0-0.6,0-0.9,0c-0.6,0-1-0.1-1.3-0.2c-0.1,0-0.3-0.1-0.3-0.1
			c-0.4,0-0.8,0-1.3-0.1c-0.7-0.2-0.9-0.6-0.9-0.8c-0.2-0.8,0.5-1.5,0.7-1.8c0.7-0.7,1.3-1,2.1-1l0.2,0l0.1,0c0,0,0,0,0.1-0.1
			l0.2-0.2c0.4-0.4,1.1-1,1.1-2.9l0-1c0-1.3,0-2.6-0.1-3.6l-0.6-1.5c-0.2-0.3-0.4-0.7-0.6-1l0,0.3l-1.2-1.5
			c-0.1-0.1-0.2-0.2-0.2-0.3l-0.5-0.5c-0.1-0.1-0.2-0.2-0.3-0.3l-0.2-0.2c-0.1-0.1-0.2-0.2-0.4-0.3l-0.2-0.2
			c-0.3-0.5-0.5-0.9-0.7-1.4c-0.2-0.5-0.4-1.1-0.6-1.6c-0.1-0.4-0.2-0.8-0.4-1.1L5,20.3l0-0.3c-0.2-0.4-0.3-0.8-0.6-1.2l-0.1-0.1
			l0-0.2c0,0,0-0.1,0-0.1L4,17.4c-0.2-0.4-0.3-0.8-0.4-1.1c-0.1-0.2-0.1-0.2-0.1-0.2c0,0-0.2-0.1-0.3-0.2c-0.1,0-0.1-0.1-0.1-0.1
			c-0.3-0.2-0.4-0.3-0.7-0.7C2.2,15,2.1,14.9,2,14.8c-0.2-0.2-0.3-0.4-0.5-0.9c-0.3-0.8-0.3-3.9-0.3-4.6c0.1-0.9,0.1-1.4,0.2-2.1
			C1.5,7,1.6,6.7,1.6,6.4L0.8,6.2l0-0.1L0.6,4.5l0.1,0l0.3-0.4c0,0,0,0,0,0c0,0,0,0,0,0L0.6,4.3L0.3,3.6l0-0.1
			c0-0.3,0.1-0.5,0.1-0.8c0-0.2,0-0.4,0-0.6c0-0.3,0-0.5,0-0.8l0-0.1L0,1l0.9-0.6C1,0.4,1.2,0.3,1.3,0.2l0.1-0.1l0.7,0L2.2,0l1.5,0
			L3.6,0.2c0,0,0,0,0,0L5,0.1L4.8,0.4l0,0c0.3,0,0.6,0,0.9,0.1l3.4,0.4l-0.1,0c0.2,0,0.3,0,0.4,0l0.2,0c0,0,0.1,0,0.1,0
			c0.2,0,0.3-0.1,0.4-0.1l0.2,0c0.3-0.2,0.8-0.4,1.2-0.3l0.5,0c0.1,0,0.1,0,0.2,0l0,0c0,0,0.1,0,0.1,0c0.2,0,0.3-0.1,0.5-0.1l0.2,0
			c0.3-0.1,0.6-0.1,0.9,0c0,0,0,0,0.1,0c0.1,0,0.2,0,0.2,0c0,0,0.1,0,0.2,0c0.4,0,0.8,0.2,1.1,0.5c0,0,0.1,0.1,0.1,0.1l0.6,0.4
			l0,0.2c0,0.5,0.1,1,0.2,1.4c0,0.1,0,0.2,0.1,0.3l0,0.1l0,0.1c0,0.1,0,0.2,0,0.3l-0.1,0.7l-1.1,0c0,0.4,0,0.7,0,0.9
			c0.4,0.3,0.9,0.7,1.4,1c0.8,0.5,1,0.7,2.4,1c1.5,0.4,2.2,0.5,3.1,0.7c0.2,0,0.4,0,0.6,0l0.3,0c0.2,0,0.5-0.1,0.8-0.2
			c0.3-0.1,0.7-0.2,1-0.2L25,7.5c0,0,0.1,0,0.1,0l0-0.1l0.3-0.1l0.5,0c0.1,0,0.3-0.1,0.4-0.1l0.1,0c0.2,0,0.3,0,0.4,0.1
			c0.3,0,0.7,0,1,0c0.1,0,0.1,0,0.2,0.1c0.2,0,0.4,0,0.6,0c0.4-0.1,0.8-0.2,1-0.2L30,7c0.4-0.1,0.8-0.2,1.2-0.3
			c0.8-0.1,1.7-0.1,2.5,0.1c0.1,0,0.3,0.1,0.4,0.2c0.4,0.1,0.8,0.2,1.3,0.4c0.1,0,0.2,0.1,0.2,0.1c0.5,0.2,1.1,0.3,1.7,0.6
			c0.3,0.1,0.6,0.2,0.9,0.3c1.6,0.6,3.6,1.3,4.9,2.8l0.1,0.2c1.5,1.7,3,3.5,3.4,6.3c0.1,0.7,0.2,1.5,0.3,2.4
			c0.1,0.4,0.1,0.9,0.1,1.4c0,0.2,0,0.4,0,0.6l0.1,0.5c0,0.1,0,0.1,0,0.2l0,0.1c0,0.1,0.1,0.3,0.1,0.4l0.4-1.7l0.2,5.4
			c0,0.2,0.1,0.5,0.1,0.7l0,0.2c0,0.3,0,0.7,0,1.1l0.5,5.5l-0.8-2.2c0,0.6-0.1,1.2-0.2,1.6c-0.1,0.6-0.2,0.9-0.2,1.2
			c-0.1,0.4-0.1,0.7-0.3,1.3c-0.2,0.8-0.5,1.2-0.8,1.4c0,0,0,0,0,0c0,0.3-0.2,0.7-0.8,1L45.1,39c-0.3,0.1-0.5,0.2-0.8,0.2
			c-0.4,0-0.7-0.1-0.9-0.3c-0.1,0.3-0.2,0.6-0.3,0.9C43.1,40,43,40.3,43,40.5c-0.2,1-0.5,1.9-1.2,2.4C41.2,43.3,40.7,43.3,40.1,43.3
			z M37.4,41.3c0,0,0.1,0.1,0.2,0.2c0.1,0.1,0.7,0.1,1.1,0.1c0.2,0,0.4,0,0.7,0l0.3,0c0.2,0,0.3,0,0.5,0c0.5,0,0.6,0,0.7-0.2
			c0.2-0.1,0.3-0.8,0.4-1.3c0.1-0.3,0.1-0.5,0.2-0.8c0.4-1.3,0.9-2.7,0.9-2.7l0.8-2l0.8,2c0.1,0.3,0.3,0.6,0.4,0.7l0.1-0.1
			c0-0.1,0.1-0.2,0.2-0.3c0.1-0.1,0.2-0.4,0.4-0.5l0.1-0.1h0c0,0,0-0.1,0.2-0.5c0.1-0.4,0.2-0.6,0.2-1c0-0.3,0.1-0.7,0.3-1.4
			c0.1-0.3,0.1-0.9,0.1-1.9l0-0.1l0-0.2l-0.1-1.1l0.1-0.8l0,0l0.1-1.4l0,0c0,0,0-0.1,0-0.2l-0.8-3.7l0.4,0.4l0,0l-0.5-2.9l0.2,0.4
			l0,0l0-0.1c0-0.2,0-0.4,0-0.6c0-0.3,0-0.7-0.1-1.1l0-0.1c-0.1-0.8-0.1-1.6-0.2-2.3c-0.3-2.2-1.7-3.8-3-5.4l-0.1-0.2
			c-1-1.2-2.6-1.8-4.1-2.3c-0.4-0.1-0.7-0.3-1-0.4l-0.3-0.1c-0.9-0.5-1.8-0.9-2.8-1.1c-1.1-0.2-2.5-0.2-3.9-0.1
			c-0.5,0-1,0.1-1.4,0.1c-1.3,0-2.3,0.3-3.2,0.8L25,9.4h-0.3c-0.1,0-0.3,0.1-0.4,0.1c-0.3,0.1-0.7,0.2-1.2,0.2l-0.3,0
			c-0.2,0-0.4,0-0.6,0l-0.1,0l-0.2,0C20.7,9.6,20,9.4,18.5,9c-1.6-0.4-2-0.7-2.9-1.2c-0.9-0.6-2-1.4-2-1.4L13.2,6l0.1-0.6
			c0-0.1,0.1-0.3,0.2-0.5c0,0,0,0,0,0c0,0,0-0.3-0.2-1.1l0-0.2c0-0.1,0-0.3,0-0.5l-0.9-0.7l-0.3,0.1L12,2.4l-1.3,0.4l0.1-0.3l0,0
			c-0.2,0.1-0.4,0.1-0.7,0.2c-0.3,0-0.4,0-0.7,0L6.4,3.2l0.7,0.7L5.7,3.3L4.9,3.5l0.5-0.3L3.8,2.5L3,4.1l0.1,0L2.9,4.5l0.7,0.2
			L3.2,5.1c0.2,0.2,0.3,0.4,0.3,0.7c0.1,0.2,0,0.5-0.1,0.7c0,0.1-0.2,0.4-0.3,1.1C3.1,8.2,3.1,8.6,3,9.5c-0.1,1,0.1,3.5,0.2,3.9
			c0.1,0.2,0.1,0.2,0.2,0.4c0.1,0.1,0.2,0.2,0.3,0.5c0.1,0.1,0.1,0.2,0.2,0.2c0,0,0.1,0.1,0.3,0.2l0.1,0c0.5,0.2,0.7,0.5,1,1.1
			c0.1,0.3,0.3,0.7,0.5,1.2c0.1,0.3,0.3,0.6,0.3,0.8l0.4-0.4l0.1,1.1c0.1,0.6,0.2,1.1,0.3,1.6l0,0.1l0,0.1l-0.5,0l0.5,0.1
			c-0.1,0.4,0.2,1.3,0.3,1.5c0.1,0.1,0.2,0.2,0.3,0.4c0.1,0.1,0.2,0.2,0.2,0.3c0,0.1,0,0.1,0.1,0.1l0.4,0.5l0,0l0.3,0.3
			c0.8,1.1,1.7,2.1,2.9,3.1l0.1-0.2l0.9,1.6l0,0c0.5,1.4,0.5,3.3,0.5,5.2l0,1c0,2.6-1.1,3.6-1.6,4.1c-0.1,0.1-0.1,0.1-0.1,0.1
			c-0.4,0.5-0.8,0.6-1.3,0.6l-0.2,0c-0.2,0-0.4,0-0.7,0.2c0.3,0,0.5,0.1,0.7,0.1c0.3,0.1,0.5,0.2,0.9,0.2c0.2,0,0.5,0,0.8,0
			c1.1,0,1.9-0.1,2.2-0.2c0.4-0.1,1-0.8,1.3-1.7c0.2-0.4,0.4-1.6,0.7-2.6l1.3-5.8V31c0.1-0.1,0.1-0.2,0.2-0.3c0.5-1.5,1-2.6,2-3.7
			l0.1-0.1c0.1,0,0.1-0.1,0.2-0.1c0.7-0.6,1.5-1.1,2.5-1.6l2.3-1.1l-0.3,0.3c2.4-0.7,5.2-0.9,8.2-0.6l0.2,0.1
			c0.1,0.1,0.2,0.1,0.3,0.2l0.5,0.3l-0.4,0.4l0,0l0,0l0.3,0.5l1.1,1.9l-0.3-0.1c0,0.1,0.1,0.1,0.1,0.2c0.2,0.4,0.3,0.9,0.5,1.1
			c0.4,0.5,0.4,0.5,1.3,0.8c0.2,0.1,0.4,0.2,0.6,0.2l-0.3-1.2l0.9,1.2L36.5,29l0.8,1.2l0-0.1l0.5,0.8l0-0.2l0.9,1.5l0,0l0.1,0.1l0,0
			c0.2,0.3,0.3,0.5,0.5,0.7l0.4,0.5c0.2,0.3,0.4,0.6,0.7,0.9l0.1,0.1l0,0.5l0.1,0.8c0.2,1.4-0.1,3.4-0.4,4c-0.3,0.6-0.6,0.9-1.2,1
			l-0.2,0c-0.3,0-0.8,0.1-1.1,0.2C37.5,41,37.5,41.1,37.4,41.3z M16.8,34.6L16.8,34.6l0.2,0l0.1-0.2l0.3-0.1c-0.1-0.3-0.1-0.6-0.1-1
			l0-0.1l0.2-0.7l0.2-0.1l0-0.3l0-0.1c0-0.1,0.1-0.2,0.1-0.4c0,0.1-0.1,0.1-0.2,0.2L16.8,34.6z M19.8,27.6c-0.1,0.1-0.1,0.1-0.2,0.2
			C19.6,27.8,19.7,27.8,19.8,27.6l0.1,0c0.1-0.1,0.2-0.2,0.2-0.3c-0.1,0-0.1,0.1-0.2,0.1C19.9,27.5,19.8,27.6,19.8,27.6z M31.1,24.7
			c0.1,0.2,0.3,0.3,0.4,0.5l0.1-0.1l-0.2-0.4C31.2,24.7,31.2,24.7,31.1,24.7L31.1,24.7z M5.4,2.3l0.6,0.6l0.5-0.2
			c-0.1,0-0.2-0.1-0.3-0.1c0,0-0.1,0-0.1-0.1L5.8,2.4c-0.1,0-0.1-0.1-0.2-0.1L5.4,2.3z M2.2,2.1c0.2,0.1,0.3,0.2,0.3,0.3
			c0,0,0.1,0.1,0.1,0.1c0,0,0.1,0.1,0.1,0.1l0.4-0.4L2.8,2l-0.5,0L2.2,2.1z"/>
	</g>
</g>
</svg>
