<?xml version="1.0" encoding="utf-8"?>
<!-- Generator: Adobe Illustrator 18.0.0, SVG Export Plug-In . SVG Version: 6.00 Build 0)  -->
<!DOCTYPE svg PUBLIC "-//W3C//DTD SVG 1.1//EN" "http://www.w3.org/Graphics/SVG/1.1/DTD/svg11.dtd">
<svg version="1.1" id="Capa_1" xmlns="http://www.w3.org/2000/svg" xmlns:xlink="http://www.w3.org/1999/xlink" x="0px" y="0px"
	 viewBox="0 0 44.1 45.5" enable-background="new 0 0 44.1 45.5" xml:space="preserve">
<g>
	<g>
		<path d="M10.8,45.5L10.8,45.5c-1.7,0-2-0.4-2.1-0.7c-0.1-0.2-0.2-0.4-0.2-0.8c0-0.1,0-0.2,0-0.3c-0.2,0-0.3-0.1-0.4-0.1l-0.1,0
			c-0.4-0.1-0.7-0.4-0.8-0.7c-0.1-0.3,0-0.6,0.2-0.8c0.1-0.1,0.2-0.2,0.3-0.2c0,0,0.1,0,0.1-0.1c0.1-0.3,0.2-0.7,0.5-1
			c0.2-0.1,0.4-0.2,0.7-0.3c0.2-0.1,0.4-0.1,0.4-0.1c0.1-0.2,0.2-0.7,0.2-1.1c0-0.5,0-1.1,0-1.5c0-0.3-0.1-0.9-0.2-1.7l-0.2-1.6
			c-0.2-1.3-0.7-3.7-1-4.9c-0.2-0.7-0.3-1-0.5-1.2c-0.1-0.1-0.2-0.3-0.2-0.4c-0.1-0.3-0.3-0.5-0.5-0.8c-0.1-0.2-0.2-0.3-0.3-0.4
			c-0.8-1-1.8-2.5-2-3.5c-0.1-0.9-0.1-1.8-0.1-2.9c0-0.3,0.1-0.5,0.1-0.7c0.1-0.3,0.1-0.5-0.1-1.1c-0.4-1.3-0.7-3.9-0.6-5.3
			C4.2,11.7,4,9.3,3.7,8.8C3.6,8.4,3.3,8.3,3.2,8.1C3,8,2.8,7.9,2.7,7.6l0-0.1C2.5,7.3,2.4,7.1,2.2,7L2.1,6.9
			C1.6,6.6,0.9,6.3,0.5,5.7c-0.6-0.8-0.7-1.5-0.3-2c0.1-0.1,0.2-0.2,0.3-0.2c0,0,0,0,0,0c-0.4-0.7-0.3-1-0.2-1.1c0,0,0-0.1,0-0.1
			c0-0.1,0-0.3,0-0.4c-0.1-0.2-0.2-0.6,0-1C0.5,0.4,1,0,1.6,0c0.3,0,0.5,0.1,0.8,0.3c0.2,0.1,0.8,0.4,1.2,0.6C3.8,0.9,4,1,4.2,1.1
			C4.6,1.4,5.4,1.4,6,1.4c0.3,0,0.5,0,0.7,0c1.1,0.1,2,0.5,2.7,1.3c0.3,0.4,0.6,0.7,0.8,1c0.2,0.2,0.4,0.5,0.5,0.5l0.1,0.1
			c0.5,0.3,1.8,1.2,1.5,2.4c-0.1,0.6-0.5,1.4-1,2.3l-0.1,0.1c0,0.3,0.1,1.2,0.3,1.8c0.2,0.5,0.6,1.7,0.8,1.9
			c0.1,0.1,0.2,0.1,0.4,0.1c0.1,0,0.2,0.1,0.4,0.1c0.3,0.1,1.2,0.4,1.8,0.3c0.8-0.1,1.9,0,2.8,0.1c0.7,0.1,1.9-0.1,2.6-0.2
			c0.4-0.1,0.9-0.1,1.3-0.2c0.4-0.1,0.7-0.1,0.8-0.1c0.3-0.1,0.7,0,1.5,0c0.7,0,1.4,0.1,2,0c0.2,0,0.4,0,0.7,0
			c1.4,0,4.4,0.1,6.2,0.6c2,0.5,4.4,1.8,5.7,2.9c1.4,1.2,2.2,2.9,2.2,4.4c0,1.3-0.3,2.8-0.6,3.6c-0.1,0.3-0.5,1.6,0,3.4l0.1,0.4
			c0.3,1.4,0.6,2.6,1.3,3.4c0.3,0.4,0.8,0.9,1.2,1.4c1.2,1.3,1.5,1.7,1.5,2.1c0,0.2,0,0.6-0.1,1.2c-0.1,0.5-0.1,0.9-0.1,1.1
			c0,0.1,0,0.2,0,0.4c0,0.3,0.1,0.7,0,1.1c-0.1,0.3-0.1,0.4-0.1,1.2c0,0.5,0.1,0.9,0.1,1.2c0,0.2,0.1,0.4,0.1,0.5
			c0,0.4-0.1,0.6-0.2,0.8c0,0.1,0,0.1-0.1,0.2c0,0.1,0,0.2,0,0.2c0,0.2-0.1,0.5-0.3,0.8c0,0.7-0.4,0.9-0.6,1
			c-0.4,0.1-0.6,0.2-0.9,0.2l0,0c-0.2,0-0.4-0.1-0.6-0.2c-0.3,0-0.5,0-0.7,0c-0.2,0-0.4,0-0.5-0.1c-0.3,0-0.6,0-0.8-0.3
			c-0.1-0.1-0.1-0.1-0.1-0.2c-0.2-0.1-0.3-0.3-0.4-0.4c-0.1-0.3,0-0.6,0.2-0.8c0.1-0.1,0.3-0.2,0.4-0.3c0.1-0.6,0.3-1,0.8-1.2
			c0.2-0.1,0.4-0.1,0.6-0.1c0.1,0,0.1,0,0.1,0c0.1-0.1,0.1-0.1,0.1-0.2c0-0.1,0-0.1,0-0.2c0-0.2-0.1-0.6,0.1-1c0-0.1,0.1-1-0.2-2
			c-0.3-0.9-0.9-2-1.3-2.5c-0.2-0.3-0.7-0.6-1.1-1c-0.2-0.2-0.5-0.4-0.7-0.6c0.2,0.3,0.2,0.4,0.2,0.5c0.1,0.5-0.2,1-0.4,1.4
			c-0.1,0.2-0.3,0.4-0.4,0.7c-0.1,0.3-0.2,0.6-0.4,0.9c-0.3,0.6-0.5,1.3-0.8,1.8c-0.3,0.6-0.5,1.2-0.6,1.5l-0.1,0.2
			c-0.1,0.2-0.2,0.4-0.4,0.6c-0.1,0.2-0.2,0.5-0.4,0.8c-0.3,0.4-0.8,0.5-1,0.5c-0.1,0-0.5,0.2-0.9,0.2c-0.3,0-0.6-0.1-0.8-0.2
			c-0.9,0-1.3-0.1-1.5-0.4c-0.1-0.1-0.1-0.2-0.1-0.3c-0.1-0.1-0.1-0.2-0.2-0.3l-0.3-0.1l0.3-0.2c0-0.2,0.1-0.4,0.3-0.6
			c0.2-0.2,0.4-0.3,0.6-0.3c0,0,0.1-0.1,0.1-0.1c0.1-0.3,0.4-0.6,0.7-0.7l0.2-0.1c0.2,0,0.3,0,0.4-0.1l0.1,0l0.1,0c0,0,0,0,0,0
			l0.3-0.3c0.2-0.2,0.3-0.4,0.4-0.7l0-0.1l0.1-0.1c0,0,0.1-0.1,0.1-0.1c0.1-0.1,0.2-0.7,0.3-1.3l-0.1-0.7c0-0.3-0.1-0.5-0.1-0.6
			c-0.1-0.2-0.1-0.3-0.2-0.5l0-0.1c0-0.2-0.1-0.5-0.3-0.9c-0.3-0.7-1.3-2.3-2.3-3.4c-1.1-1.2-1.9-3.1-2.1-4c-0.2-1.2-0.2-1.8,0-2.2
			c0,0,0-0.1,0-0.1c-0.2-0.2-0.3-0.4-0.3-0.7c-0.5,0-1.7,0.3-3.2,1c-0.6,0.3-1.2,0.7-1.8,1.1c-0.9,0.7-1.9,1.4-3.5,2.1
			c-2,0.9-3.5,1.4-4.2,1.6c-0.1,0.7-0.4,2.3-0.5,3.4c-0.1,0.8-0.1,1.7-0.2,2.6c0,0.8-0.1,1.6-0.1,2.2c-0.1,0.7,0,1.3,0,1.7
			c0,0.3,0.1,0.6,0,0.8c-0.1,0.5-0.1,1.2-0.8,1.3c0,0-0.1,0-0.1,0c-0.1,0.3-0.3,0.7-0.4,1.2c-0.1,0.2-0.1,0.4-0.1,0.6
			c-0.1,0.5-0.2,1.1-0.6,1.4C12.2,45.3,11.5,45.5,10.8,45.5z M10.6,44.1c0,0,0.1,0,0.1,0c0.5,0,0.8-0.1,1.1-0.3c0,0,0.1-0.1,0.1-0.2
			l-0.4,0.1C11.2,43.9,10.9,44,10.6,44.1z M11.6,43.4l0.3,0.1c0-0.1,0-0.2,0.1-0.3c0-0.2,0.1-0.5,0.2-0.7c0.1-0.2,0.1-0.5,0.2-0.7
			c0,0.1-0.1,0.1-0.1,0.2c-0.2,0.3-0.2,0.5-0.3,0.7c0,0.1,0,0.1-0.1,0.2C11.8,43,11.7,43.2,11.6,43.4z M41.4,43.3c0.1,0,0.2,0,0.3,0
			c0.1,0,0.2,0.1,0.2,0.1c0-0.3,0.1-0.5,0.3-0.7c0,0,0,0,0,0c0-0.1,0-0.2,0.1-0.4c0-0.2,0.1-0.3,0.2-0.4c0-0.1,0-0.3,0-0.4
			c-0.1-0.4-0.1-0.8-0.1-1.4c0,0.1-0.1,0.2-0.1,0.3c0,0,0,0,0,0.1c0,0.1,0.1,0.3,0,0.5c0,0.6-0.2,0.9-0.5,1.2
			c-0.3,0.3-0.7,0.4-1,0.4c0,0-0.1,0-0.1,0c0,0.1,0,0.2,0,0.2c0,0.1,0,0.2-0.1,0.3c0,0,0,0,0,0c0.2,0,0.4,0,0.6,0
			C41.3,43.3,41.4,43.3,41.4,43.3z M9.3,41.9C9.3,42,9.3,42,9.3,41.9l1.3-0.1c0,0,0.1,0,0.1-0.1c0-0.2,0-0.2,0-0.3
			c0-0.1,0-0.2,0-0.4l0,0c-0.1,0.1-0.1,0.2-0.2,0.3C10.3,41.7,9.8,41.8,9.3,41.9C9.3,41.9,9.3,41.9,9.3,41.9z M12.3,39.1l0.2,0.4
			c0.1,0.4,0.2,0.8,0.1,1.1c0,0.1,0,0.2,0,0.3c0,0.2,0,0.3-0.1,0.5c0.2-0.5,0.4-0.9,0.5-1.1l0.3-0.4l0.1,0c0-0.1,0-0.3,0-0.5
			c0-0.5-0.1-1.3,0-2.1c0.1-0.5,0.1-1.3,0.1-2.1c0-0.9,0.1-1.9,0.2-2.7c0.2-1.4,0.5-3.5,0.6-3.9l0.1-0.4l0.4-0.1
			c0,0,1.8-0.6,4.5-1.7c1.5-0.6,2.4-1.3,3.3-1.9c0.7-0.5,1.3-1,2.1-1.3c1.7-0.7,3.4-1.2,4.1-1.1c0.5,0.1,0.9,0.3,1,0.7
			c0.1,0.2,0.1,0.3,0.1,0.5c0.5,0.5,0.2,1.2,0,1.6v0c0,0-0.1,0.3,0.1,1.4c0.1,0.5,0.7,2.1,1.7,3.2c1,1.1,1.9,2.6,2.4,3.5l0.2-1.4
			l0.8,4.9c0,0.1,0.1,0.5,0,0.9c0.1-0.3,0.2-0.5,0.4-0.8c0.2-0.4,0.3-0.7,0.4-0.9c0.1-0.3,0.3-0.6,0.5-0.9c0.1-0.2,0.2-0.4,0.3-0.5
			c-0.1-0.1-0.6-0.9-1.2-1.6L35,32.6l1.1-2.3l0.7,0.7l0,0c0,0,0.7,0.7,1.4,1.4c0.2,0.3,0.7,0.6,1.1,1c0.5,0.4,1,0.8,1.3,1.2
			c0.5,0.6,1.2,1.8,1.6,3c0.1,0.5,0.2,1,0.3,1.5c0-0.2,0.1-0.4,0.1-0.6c0-0.1,0-0.3,0-0.4c0-0.2,0-0.4,0-0.6c0-0.2,0.1-0.7,0.1-1.3
			c0-0.4,0.1-0.8,0.1-1c-0.2-0.2-0.8-0.9-1.1-1.3c-0.5-0.5-1-1.1-1.3-1.5c-0.8-1-1.2-2.4-1.5-3.9l-0.1-0.4c-0.5-2.1-0.1-3.7,0.1-4.2
			c0.2-0.7,0.5-2,0.5-3.1c0-1-0.7-2.3-1.7-3.3c-1.1-1-3.3-2.1-5.1-2.6c-1.6-0.4-4.5-0.6-5.8-0.6c-0.2,0-0.4,0-0.6,0
			c-0.7,0-1.5,0-2.1,0c-0.6,0-1.1,0-1.2,0c-0.2,0-0.4,0.1-0.8,0.1c-0.5,0.1-1,0.1-1.4,0.2c-0.8,0.2-2.2,0.3-3.1,0.2
			c-0.8-0.1-1.7-0.2-2.4-0.1c-0.9,0.1-2-0.2-2.5-0.4c-0.1,0-0.2-0.1-0.3-0.1c-0.2-0.1-0.4-0.1-0.8-0.3c-0.5-0.4-0.9-1.2-1.4-2.6
			c-0.4-1-0.4-2.3-0.4-2.4l0-0.2c0-0.1,0.1-0.2,0.2-0.4c0.6-1.1,0.8-1.7,0.9-2c0-0.1-0.1-0.4-0.9-0.9C9.9,5.5,9.8,5.4,9.8,5.4
			C9.5,5.2,9.3,4.9,9,4.5C8.8,4.3,8.6,4,8.3,3.7C7.9,3.2,7.3,3,6.5,2.9c-0.1,0-0.3,0-0.6,0c-0.7,0-1.7-0.1-2.4-0.4
			C3.4,2.3,3.2,2.3,3,2.2C2.5,1.9,2.1,1.8,1.7,1.6c0,0.1,0,0.2,0,0.3c0,0,0,0.1,0,0.2c0,0.2,0,0.4,0,0.6C1.8,2.8,2,3.1,2.1,3.2
			L2.7,4L1.9,4.2c0,0.1-0.1,0.2-0.2,0.3L1.6,4.7c0,0,0.1,0.1,0.1,0.1c0.2,0.3,0.7,0.5,1.1,0.8l0.2,0.1c0.6,0.4,0.9,0.9,1,1.2
			c0,0,0,0,0.1,0c0.3,0.2,0.7,0.5,1,1.1c0.6,1.1,0.6,4.2,0.5,5.2C5.4,14.6,5.7,17,6,18.2c0.3,1,0.2,1.4,0.1,1.8
			c0,0.1-0.1,0.3-0.1,0.5c0,1,0,1.9,0.1,2.7c0,0.3,0.3,1,1.6,2.8C7.9,26,8,26.1,8.1,26.3c0.3,0.3,0.6,0.7,0.8,1.1
			C8.9,27.5,9,27.6,9,27.7c0.2,0.3,0.4,0.7,0.6,1.6c0.3,1.3,0.8,3.7,1,5l0.2,1.5c0.1,0.8,0.2,1.5,0.2,1.8c0.1,0.5,0.1,1.2,0,1.7
			l0.3,0L12.3,39.1z M32.1,41.2l0.3,0.2c0,0,0,0,0.1,0c0,0,0,0,0,0c0.2,0,0.4-0.1,0.6-0.1l0.1,0c0.1,0,0.2,0,0.2-0.1
			c0,0,0-0.1,0-0.2l0-0.1c-0.3,0.2-0.7,0.2-1,0.1c-0.1,0-0.2,0-0.2,0c0,0,0,0.1-0.1,0.1C32,41.1,32,41.1,32.1,41.2L32.1,41.2
			L32.1,41.2L32.1,41.2z"/>
	</g>
</g>
</svg>
