<?xml version="1.0" encoding="utf-8"?>
<!-- Generator: Adobe Illustrator 18.0.0, SVG Export Plug-In . SVG Version: 6.00 Build 0)  -->
<!DOCTYPE svg PUBLIC "-//W3C//DTD SVG 1.1//EN" "http://www.w3.org/Graphics/SVG/1.1/DTD/svg11.dtd">
<svg version="1.1" id="Capa_1" xmlns="http://www.w3.org/2000/svg" xmlns:xlink="http://www.w3.org/1999/xlink" x="0px" y="0px"
	 viewBox="0 0 43.5 38.8" enable-background="new 0 0 43.5 38.8" xml:space="preserve">
<g>
	<g>
		<g>
			<g>
				<path d="M43.1,15.3L22.4,0.2c-0.4-0.3-0.9-0.3-1.3,0L0.5,15.3c-0.5,0.4-0.6,1.1-0.2,1.6s1.1,0.6,1.6,0.2l20-14.6l20,14.6
					c0.2,0.1,0.4,0.2,0.7,0.2c0.3,0,0.7-0.2,0.9-0.5C43.7,16.4,43.6,15.7,43.1,15.3z"/>
			</g>
		</g>
		<g>
			<g>
				<path d="M37.6,17.4c-0.6,0-1.1,0.5-1.1,1.1v18h-9.1v-9.8c0-3.1-2.5-5.7-5.7-5.7s-5.7,2.5-5.7,5.7v9.8H7.1v-18
					c0-0.6-0.5-1.1-1.1-1.1s-1.1,0.5-1.1,1.1v19.1c0,0.6,0.5,1.1,1.1,1.1h11.3c0.6,0,1.1-0.5,1.1-1c0,0,0-0.1,0-0.1v-11
					c0-1.9,1.5-3.4,3.4-3.4s3.4,1.5,3.4,3.4v11c0,0,0,0.1,0,0.1c0,0.6,0.5,1,1.1,1h11.3c0.6,0,1.1-0.5,1.1-1.1V18.5
					C38.7,17.9,38.2,17.4,37.6,17.4z"/>
			</g>
		</g>
	</g>
</g>
</svg>
