<?xml version="1.0" encoding="utf-8"?>
<!-- Generator: Adobe Illustrator 18.0.0, SVG Export Plug-In . SVG Version: 6.00 Build 0)  -->
<!DOCTYPE svg PUBLIC "-//W3C//DTD SVG 1.1//EN" "http://www.w3.org/Graphics/SVG/1.1/DTD/svg11.dtd">
<svg version="1.1" id="Capa_1" xmlns="http://www.w3.org/2000/svg" xmlns:xlink="http://www.w3.org/1999/xlink" x="0px" y="0px"
	 viewBox="0 0 28.3 28.3" enable-background="new 0 0 28.3 28.3" xml:space="preserve">
<g>
	<g>
		<path d="M3.3,9.1c-4.4,4.4-4.4,11.5,0,15.9c4.4,4.4,11.5,4.4,15.9,0c4.1-4.1,4.3-10.6,0.7-15l2.5-2.5l1.7-1.7l3.3-3.3
			c0.5-0.5,0.5-1.2,0-1.7c-0.5-0.5-1.2-0.5-1.7,0l-3.3,3.3l-1.7,1.7l-2.5,2.5C13.8,4.8,7.4,5,3.3,9.1z M17.5,23.4
			c-3.5,3.5-9.1,3.5-12.6,0c-3.5-3.5-3.5-9.1,0-12.6c3.5-3.5,9.1-3.5,12.6,0C21,14.3,21,19.9,17.5,23.4z"/>
	</g>
	<g>
		<path d="M27.3,7.1c-0.5,0-0.9-0.4-0.9-0.9V1.9h-4.3c-0.5,0-0.9-0.4-0.9-0.9S21.6,0,22.1,0h5.3c0.5,0,0.9,0.4,0.9,0.9v5.3
			C28.3,6.7,27.9,7.1,27.3,7.1z"/>
	</g>
</g>
</svg>
