<?xml version="1.0" encoding="utf-8"?>
<!-- Generator: Adobe Illustrator 18.0.0, SVG Export Plug-In . SVG Version: 6.00 Build 0)  -->
<!DOCTYPE svg PUBLIC "-//W3C//DTD SVG 1.1//EN" "http://www.w3.org/Graphics/SVG/1.1/DTD/svg11.dtd">
<svg version="1.1" id="Capa_1" xmlns="http://www.w3.org/2000/svg" xmlns:xlink="http://www.w3.org/1999/xlink" x="0px" y="0px"
	 viewBox="0 0 41.6 41.4" enable-background="new 0 0 41.6 41.4" xml:space="preserve">
<g>
	<g>
		<g>
			<g>
				<path d="M40.9,36.3h-2.3v-8c0-1.8-1.5-3.2-3.2-3.2h-1v-8.3c0-1.6-1.3-2.9-2.9-2.9h-8.1V7.1c0-0.4-0.3-0.7-0.7-0.7h-1.2v-1
					C22.4,5.1,23,4.2,23,3.2c0-1-1.3-2.6-1.7-3C21.2,0.1,21,0,20.8,0c-0.2,0-0.4,0.1-0.5,0.2c-0.4,0.4-1.7,2-1.7,3
					c0,1,0.7,1.8,1.6,2.1v1h-1.2c-0.4,0-0.7,0.3-0.7,0.7v6.7h-8.1c-1.6,0-2.9,1.3-2.9,2.9v6c0,0.4,0.3,0.7,0.7,0.7
					c0.4,0,0.7-0.3,0.7-0.7v-6c0-0.8,0.7-1.5,1.5-1.5h21.3c0.8,0,1.5,0.7,1.5,1.5V25h-25H6.2C4.4,25,3,26.5,3,28.3v5.6
					c0,0.4,0.3,0.7,0.7,0.7c0.4,0,0.7-0.3,0.7-0.7v-5.6c0-1,0.8-1.9,1.9-1.9h1.7h25.7h1.7c1,0,1.9,0.8,1.9,1.9v8H3.7h-3
					c-0.4,0-0.7,0.3-0.7,0.7c0,2.5,2,4.5,4.5,4.5h32.6c2.5,0,4.5-2,4.5-4.5C41.6,36.6,41.3,36.3,40.9,36.3z M19.9,3.2
					c0-0.2,0.4-0.9,0.9-1.5c0.5,0.6,0.9,1.3,0.9,1.5c0,0.5-0.4,0.9-0.9,0.9C20.3,4.1,19.9,3.7,19.9,3.2z M22,13.8h-2.4v-6H22V13.8z
					 M37.1,40H4.5c-1.5,0-2.7-1-3-2.4h2.2h34.2h2.2C39.8,39,38.6,40,37.1,40z"/>
			</g>
		</g>
		<g>
			<g>
				<path d="M30.7,17.1c-1,0-1.7,0.7-2.2,1.2c-0.5,0.5-0.8,0.8-1.2,0.8c-0.3,0-0.6-0.3-1-0.8c-0.5-0.6-1-1.2-2-1.3
					c-1,0-1.6,0.6-2.1,1.1c-0.5,0.5-0.9,0.8-1.3,0.8c0,0,0,0,0,0c-0.4,0-0.8-0.3-1.3-0.8c-0.5-0.5-1.2-1.2-2.2-1.2c0,0,0,0,0,0
					c-1,0-1.7,0.7-2.2,1.3c-0.5,0.5-0.8,0.8-1.2,0.8c0,0,0,0,0,0c-0.4,0-0.7-0.3-1.1-0.8c-0.5-0.6-1.1-1.3-2.1-1.3c0,0,0,0,0,0
					c-0.4,0-0.7,0.3-0.7,0.7c0,0.4,0.3,0.7,0.7,0.7c0,0,0,0,0,0c0.3,0,0.6,0.3,1.1,0.8c0.5,0.6,1.2,1.3,2.2,1.3c0,0,0,0,0,0
					c1,0,1.6-0.7,2.2-1.3c0.5-0.5,0.8-0.9,1.2-0.9c0.4,0,0.7,0.3,1.2,0.8c0.5,0.6,1.2,1.2,2.2,1.2c0,0,0,0,0,0c1,0,1.7-0.7,2.2-1.2
					c0.5-0.5,0.8-0.8,1.1-0.8c0,0,0,0,0,0c0.3,0,0.6,0.3,1,0.8c0.5,0.6,1,1.2,2,1.3c1,0,1.6-0.6,2.2-1.2c0.5-0.5,0.8-0.8,1.2-0.8
					c0.4,0,0.7-0.3,0.7-0.7C31.3,17.5,31,17.1,30.7,17.1z"/>
			</g>
		</g>
	</g>
</g>
</svg>
