<?xml version="1.0" encoding="utf-8"?>
<!-- Generator: Adobe Illustrator 18.0.0, SVG Export Plug-In . SVG Version: 6.00 Build 0)  -->
<!DOCTYPE svg PUBLIC "-//W3C//DTD SVG 1.1//EN" "http://www.w3.org/Graphics/SVG/1.1/DTD/svg11.dtd">
<svg version="1.1" id="Capa_1" xmlns="http://www.w3.org/2000/svg" xmlns:xlink="http://www.w3.org/1999/xlink" x="0px" y="0px"
	 viewBox="0 0 21.6 32.7" enable-background="new 0 0 21.6 32.7" xml:space="preserve">
<g>
	<path d="M21.6,10.8c0-6-4.9-10.8-10.8-10.8C4.8,0,0,4.8,0,10.8c0,5.6,4.3,10.1,9.7,10.7v3.4H5.2c-0.6,0-1.1,0.5-1.1,1.1
		c0,0.6,0.5,1.1,1.1,1.1h4.4v4.4c0,0.6,0.5,1.1,1.1,1.1c0.6,0,1.1-0.5,1.1-1.1v-4.4h4.4c0.6,0,1.1-0.5,1.1-1.1
		c0-0.6-0.5-1.1-1.1-1.1h-4.4v-3.4C17.4,20.9,21.6,16.4,21.6,10.8z M2.3,10.8c0-4.7,3.8-8.5,8.5-8.5c4.7,0,8.5,3.8,8.5,8.5
		c0,4.7-3.8,8.5-8.5,8.5C6.1,19.4,2.3,15.5,2.3,10.8z"/>
</g>
</svg>
